<svg width="289" height="295" viewBox="0 0 289 295" fill="none" xmlns="http://www.w3.org/2000/svg">
<path d="M134.81 290.45C98.6113 287.936 64.7129 271.788 39.9522 245.263C15.1915 218.738 1.41119 183.81 1.39089 147.525C1.37059 111.239 15.1118 76.2953 39.8428 49.7427C64.5738 23.1901 98.4542 7.00421 134.65 4.44995" stroke="url(#paint0_linear_0_1)"/>
<path d="M155.02 4.46997C191.217 7.01164 225.103 23.1857 249.843 49.7296C274.583 76.2736 288.336 111.212 288.329 147.498C288.321 183.784 274.553 218.717 249.802 245.25C225.051 271.784 191.158 287.943 154.96 290.47" stroke="url(#paint1_linear_0_1)"/>
<path d="M130.57 0.820068L135.17 4.39006L131.6 8.98006" stroke="#11CA83"/>
<path d="M158.62 294.28L154.25 290.44L158.1 286.07" stroke="#11CA83"/>
<defs>
<linearGradient id="paint0_linear_0_1" x1="68.1004" y1="4.44995" x2="68.1004" y2="290.45" gradientUnits="userSpaceOnUse">
<stop stop-color="#11CA83"/>
<stop offset="1" stop-color="#11CA83" stop-opacity="0"/>
</linearGradient>
<linearGradient id="paint1_linear_0_1" x1="221.644" y1="4.46997" x2="221.644" y2="290.47" gradientUnits="userSpaceOnUse">
<stop stop-color="#11CA83" stop-opacity="0"/>
<stop offset="1" stop-color="#11CA83"/>
</linearGradient>
</defs>
</svg>
