<svg width="2097" height="2302" viewBox="0 0 2097 2302" fill="none" xmlns="http://www.w3.org/2000/svg">
<path d="M1010.15 285.04C1566.4 285.04 2017.25 735.9 2017.25 1292.18C2017.25 1848.45 1566.4 2299.3 1010.15 2299.3C453.859 2299.3 3 1848.45 3 1292.18C3 735.9 453.859 285.04 1010.15 285.04Z" stroke="#4B514D" stroke-width="5.33333" stroke-miterlimit="2.613" stroke-linecap="round" stroke-linejoin="round"/>
<path d="M1010.13 582.992C1401.76 582.992 1719.31 900.264 1719.31 1292.17C1719.31 1684.07 1401.76 2001.35 1010.13 2001.35C618.499 2001.35 300.947 1684.07 300.947 1292.17C300.947 900.264 618.499 582.992 1010.13 582.992Z" stroke="#A0A0A0" stroke-width="5.33333" stroke-miterlimit="2.613" stroke-linecap="round" stroke-linejoin="round"/>
<path d="M1010.12 760.948C1303.64 760.948 1541.61 998.369 1541.61 1292.17C1541.61 1585.44 1303.64 1823.4 1010.12 1823.4C716.608 1823.4 478.646 1585.44 478.646 1292.17C478.646 998.369 716.608 760.948 1010.12 760.948Z" stroke="#A0A0A0" stroke-width="5.33333" stroke-miterlimit="2.613" stroke-linecap="round" stroke-linejoin="round"/>
<path d="M1010.12 916.947C1217.45 916.947 1385.53 1084.65 1385.53 1292.17C1385.53 1499.32 1217.45 1667.4 1010.12 1667.4C802.803 1667.4 634.72 1499.32 634.72 1292.17C634.72 1084.65 802.803 916.947 1010.12 916.947Z" stroke="#DBDBDB" stroke-width="5.33333" stroke-miterlimit="2.613" stroke-linecap="round" stroke-linejoin="round"/>
<path d="M1010.13 1088.92C1122.29 1088.92 1213.39 1180.23 1213.39 1292.44C1213.39 1404.62 1122.29 1495.42 1010.13 1495.42C897.92 1495.42 806.865 1404.62 806.865 1292.44C806.865 1180.23 897.92 1088.92 1010.13 1088.92Z" stroke="#DBDBDB" stroke-width="5.33333" stroke-miterlimit="2.613" stroke-linecap="round" stroke-linejoin="round"/>
<path d="M1800.68 2.99986L1892.8 189.303L1773.82 335.927L1681.97 149.624L1800.68 2.99986Z" stroke="#5DC788" stroke-width="5.33333" stroke-miterlimit="2.613" stroke-linecap="round" stroke-linejoin="round"/>
<path d="M2093.97 240.418L1892.8 189.302L1773.82 335.926L1974.99 387.069L2093.97 240.418Z" stroke="#5DC788" stroke-width="5.33333" stroke-miterlimit="2.613" stroke-linecap="round" stroke-linejoin="round"/>
<path d="M1010.15 442.116C1479.51 442.116 1860.2 822.507 1860.2 1292.16C1860.2 1761.3 1479.51 2142.23 1010.15 2142.23C540.733 2142.23 160.056 1761.3 160.056 1292.16C160.056 822.507 540.733 442.116 1010.15 442.116Z" stroke="#5E5E5E" stroke-width="5.33333" stroke-miterlimit="2.613" stroke-linecap="round" stroke-linejoin="round"/>
<path d="M1982.78 78.1464L994.694 1296.61" stroke="#5DC788" stroke-width="5.33333" stroke-miterlimit="2.613" stroke-linecap="round" stroke-linejoin="round"/>
</svg>
