<svg width="328" height="512" viewBox="0 0 328 512" fill="none" xmlns="http://www.w3.org/2000/svg">
<path opacity="0.2" fill-rule="evenodd" clip-rule="evenodd" d="M29.141 255.664C42.5649 236.957 60.1461 220.696 81.4649 208.387C156.796 164.895 251.542 186.498 298.795 255.956C285.354 274.961 267.63 291.477 246.064 303.929C170.758 347.407 75.9569 325.523 29.141 255.664Z" fill="#11CA83"/>
<path d="M133.254 237.077C133.494 237.062 133.779 237.047 134.033 237.047C134.963 237.047 135.607 237.062 135.982 237.197C136.537 237.407 136.671 237.887 136.731 238.741H137.226C137.271 237.842 137.376 236.523 137.436 236.043L136.971 235.998C136.896 236.148 136.716 236.313 136.552 236.358C136.357 236.418 136.177 236.448 132.714 236.448C129.462 236.448 129.042 236.388 128.907 236.283C128.817 236.223 128.772 236.148 128.727 236.013H128.263C128.203 236.912 128.083 237.887 127.948 238.696L128.428 238.771C128.652 238.007 128.847 237.647 129.147 237.377C129.507 237.062 130.211 237.062 131.215 237.062C131.545 237.062 131.86 237.062 132.13 237.092V245.246C132.13 245.771 132.07 246.071 131.98 246.206C131.845 246.385 131.515 246.49 130.631 246.535V247.015C131.111 246.985 132.025 246.97 132.654 246.97C133.254 246.97 134.378 247 134.798 247.015V246.535C133.988 246.475 133.554 246.415 133.419 246.221C133.314 246.071 133.254 245.876 133.254 245.216V237.077ZM140.737 241.094V238.216C140.737 237.572 140.782 237.347 140.886 237.197C140.991 237.047 141.291 236.942 142.026 236.882V236.403C141.621 236.418 140.737 236.448 140.137 236.448C139.507 236.448 138.773 236.418 138.323 236.403V236.882C139.103 236.927 139.388 237.062 139.477 237.227C139.552 237.377 139.612 237.707 139.612 238.186V245.246C139.612 245.726 139.552 246.041 139.477 246.191C139.388 246.355 139.103 246.49 138.323 246.535V247.015C138.773 247 139.507 246.97 140.137 246.97C140.737 246.97 141.621 247 142.026 247.015V246.535C141.216 246.475 140.991 246.37 140.886 246.221C140.782 246.071 140.737 245.861 140.737 245.216V241.724H146.507V245.246C146.507 245.726 146.447 246.041 146.372 246.191C146.282 246.355 145.998 246.49 145.218 246.535V247.015C145.668 247 146.402 246.97 147.032 246.97C147.632 246.97 148.516 247 148.921 247.015V246.535C148.111 246.475 147.886 246.37 147.781 246.221C147.676 246.071 147.632 245.861 147.632 245.216V238.216C147.632 237.572 147.676 237.347 147.781 237.197C147.886 237.047 148.186 236.942 148.921 236.882V236.403C148.516 236.418 147.632 236.448 147.032 236.448C146.402 236.448 145.668 236.418 145.218 236.403V236.882C145.998 236.927 146.282 237.062 146.372 237.227C146.447 237.377 146.507 237.707 146.507 238.186V241.094H140.737ZM152.854 246.97C154.323 246.97 156.421 247 157.65 247.015C157.89 246.266 158.115 245.501 158.325 244.602L157.845 244.482C157.665 244.932 157.425 245.411 157.201 245.726C156.841 246.221 156.301 246.43 155.237 246.43C154.203 246.43 153.303 246.311 153.094 245.936C152.989 245.756 152.974 245.411 152.974 245.141V241.739C153.963 241.739 154.787 241.784 155.072 241.919C155.327 242.039 155.537 242.263 155.657 243.163H156.151C156.136 242.863 156.121 242.278 156.121 241.604C156.121 240.959 156.181 240.105 156.196 239.79H155.702C155.537 240.735 155.312 240.959 155.057 241.049C154.772 241.154 153.918 241.184 152.974 241.184V236.987C153.408 236.957 154.233 236.957 154.862 236.957C155.912 236.957 156.181 237.047 156.481 237.287C156.766 237.527 156.976 237.932 157.141 238.651L157.65 238.591C157.59 238.156 157.53 237.392 157.47 236.403C156.211 236.433 154.413 236.448 152.794 236.448C152.164 236.448 151.01 236.418 150.56 236.403V236.882C151.34 236.927 151.625 237.062 151.715 237.227C151.79 237.377 151.85 237.692 151.85 238.171V245.246C151.85 245.726 151.79 246.041 151.715 246.191C151.625 246.355 151.34 246.49 150.56 246.535V247.015C151.01 247 152.224 246.97 152.854 246.97ZM167.85 241.334C169.259 240.914 170.038 239.955 170.038 238.786C170.038 237.227 168.944 236.418 166.411 236.418C165.916 236.418 165.302 236.433 164.522 236.433C163.998 236.433 163.383 236.418 162.769 236.403V236.882C163.383 236.912 163.743 236.957 163.908 237.227C164.013 237.407 164.043 237.722 164.043 238.201V245.171C164.043 245.741 164.013 246.011 163.908 246.191C163.743 246.46 163.323 246.49 162.754 246.535V247.015C163.143 247 163.893 246.985 164.567 246.985C165.077 246.985 165.796 247.015 166.441 247.015C168.839 247.015 170.608 246.026 170.608 243.867C170.608 242.383 169.454 241.529 167.85 241.334ZM165.167 237.002C165.557 236.972 165.871 236.957 166.306 236.957C167.82 236.957 168.809 237.527 168.809 238.981C168.809 240.42 167.94 241.184 165.647 241.184C165.542 241.184 165.272 241.184 165.167 241.169V237.002ZM165.167 241.739C165.512 241.724 165.811 241.724 166.066 241.724C167.865 241.724 169.319 242.114 169.319 244.257C169.319 245.681 168.599 246.4 166.921 246.4C166.051 246.4 165.437 246.236 165.287 245.936C165.197 245.756 165.167 245.351 165.167 244.722V241.739ZM174.43 246.97C175.899 246.97 177.997 247 179.226 247.015C179.466 246.266 179.691 245.501 179.901 244.602L179.421 244.482C179.241 244.932 179.001 245.411 178.777 245.726C178.417 246.221 177.877 246.43 176.813 246.43C175.779 246.43 174.879 246.311 174.67 245.936C174.565 245.756 174.55 245.411 174.55 245.141V241.739C175.539 241.739 176.363 241.784 176.648 241.919C176.903 242.039 177.113 242.263 177.233 243.163H177.727C177.712 242.863 177.697 242.278 177.697 241.604C177.697 240.959 177.757 240.105 177.772 239.79H177.278C177.113 240.735 176.888 240.959 176.633 241.049C176.348 241.154 175.494 241.184 174.55 241.184V236.987C174.984 236.957 175.809 236.957 176.438 236.957C177.488 236.957 177.757 237.047 178.057 237.287C178.342 237.527 178.552 237.932 178.717 238.651L179.226 238.591C179.166 238.156 179.106 237.392 179.046 236.403C177.787 236.433 175.989 236.448 174.37 236.448C173.74 236.448 172.586 236.418 172.136 236.403V236.882C172.916 236.927 173.201 237.062 173.291 237.227C173.366 237.377 173.426 237.692 173.426 238.171V245.246C173.426 245.726 173.366 246.041 173.291 246.191C173.201 246.355 172.916 246.49 172.136 246.535V247.015C172.586 247 173.8 246.97 174.43 246.97ZM183.928 240.645C182.998 240.045 182.519 239.371 182.519 238.621C182.519 237.632 183.223 236.867 184.497 236.867C185.711 236.867 186.191 237.437 186.491 238.681L187.015 238.636C186.91 238.037 186.806 237.062 186.761 236.583C186.296 236.403 185.651 236.238 184.812 236.238C182.803 236.238 181.529 237.407 181.529 239.011C181.529 240.225 182.264 241.109 183.328 241.784L184.707 242.668C185.651 243.268 186.101 243.792 186.101 244.797C186.101 245.906 185.277 246.58 183.958 246.58C182.459 246.58 181.889 245.711 181.544 244.377L181.005 244.437C181.08 245.141 181.23 246.011 181.38 246.625C181.784 246.955 182.863 247.225 183.868 247.225C185.891 247.225 187.165 245.996 187.165 244.227C187.165 243.148 186.566 242.353 185.232 241.499L183.928 240.645ZM193.386 237.077C193.626 237.062 193.91 237.047 194.165 237.047C195.094 237.047 195.739 237.062 196.114 237.197C196.668 237.407 196.803 237.887 196.863 238.741H197.358C197.403 237.842 197.508 236.523 197.568 236.043L197.103 235.998C197.028 236.148 196.848 236.313 196.683 236.358C196.488 236.418 196.309 236.448 192.846 236.448C189.594 236.448 189.174 236.388 189.039 236.283C188.949 236.223 188.904 236.148 188.859 236.013H188.394C188.334 236.912 188.215 237.887 188.08 238.696L188.559 238.771C188.784 238.007 188.979 237.647 189.279 237.377C189.638 237.062 190.343 237.062 191.347 237.062C191.677 237.062 191.992 237.062 192.262 237.092V245.246C192.262 245.771 192.202 246.071 192.112 246.206C191.977 246.385 191.647 246.49 190.763 246.535V247.015C191.242 246.985 192.157 246.97 192.786 246.97C193.386 246.97 194.51 247 194.93 247.015V246.535C194.12 246.475 193.686 246.415 193.551 246.221C193.446 246.071 193.386 245.876 193.386 245.216V237.077ZM120.524 255.223C117.436 255.223 115.038 257.666 115.038 260.889C115.038 263.991 117.286 266.21 120.269 266.21C123.386 266.21 125.665 263.797 125.665 260.529C125.665 257.576 123.596 255.223 120.524 255.223ZM120.494 265.565C117.87 265.565 116.327 263.497 116.327 260.589C116.327 257.711 118.05 255.867 120.254 255.867C122.472 255.867 124.376 257.636 124.376 260.904C124.376 263.812 122.697 265.565 120.494 265.565ZM129.846 260.814C130.835 260.814 131.72 260.859 132.005 260.994C132.259 261.114 132.469 261.383 132.589 262.283H133.084C133.069 261.983 133.054 261.353 133.054 260.679C133.054 260.034 133.114 259.18 133.129 258.865H132.634C132.469 259.81 132.244 260.034 131.99 260.124C131.705 260.229 130.79 260.259 129.846 260.259V255.987C130.281 255.957 131.09 255.957 131.72 255.957C132.769 255.957 133.039 256.032 133.324 256.287C133.593 256.527 133.848 257.022 134.013 257.741L134.523 257.681C134.463 257.246 134.388 256.392 134.328 255.403C133.069 255.433 131.285 255.448 129.666 255.448C129.037 255.448 127.883 255.418 127.433 255.403V255.882C128.212 255.927 128.497 256.062 128.587 256.227C128.662 256.377 128.722 256.692 128.722 257.171V264.231C128.722 264.711 128.662 265.026 128.587 265.176C128.497 265.34 128.212 265.475 127.433 265.52V266.015C127.883 266 128.572 265.97 129.202 265.97C129.801 265.97 130.925 266 131.345 266.015V265.52C130.536 265.46 130.101 265.34 129.996 265.161C129.891 264.996 129.846 264.801 129.846 264.156V260.814ZM140.034 258.326C140.679 257.216 141.503 256.662 142.478 256.662C143.722 256.662 144.141 257.531 144.141 258.535C144.141 260.289 143.197 261.908 140.634 264.366C140.334 264.651 139.555 265.34 139.03 265.745L139.09 266.015C140.769 265.985 141.578 265.985 142.208 265.985C143.422 265.985 144.411 266 145.595 266.015L145.865 264.846C144.531 264.906 141.758 264.921 140.904 264.921C142.747 263.242 145.355 260.874 145.355 258.371C145.355 256.812 144.426 255.822 142.762 255.822C141.473 255.822 140.199 256.662 139.48 258.101L140.034 258.326ZM159.696 264.516C159.141 263.197 158.557 261.848 158.017 260.514C158.677 259.09 159.231 257.936 159.606 257.156C159.786 256.767 159.996 256.302 160.31 256.062C160.475 255.942 160.715 255.897 161.03 255.882V255.403C160.805 255.418 160.011 255.448 159.531 255.448C158.931 255.448 158.407 255.433 158.032 255.403V255.882C158.677 255.882 158.991 256.062 158.991 256.392C158.991 256.527 158.976 256.812 158.722 257.411L157.702 259.78C157.253 258.685 156.893 257.726 156.728 257.276C156.578 256.902 156.488 256.542 156.488 256.392C156.488 255.972 156.788 255.897 157.432 255.882V255.403C157.238 255.403 156.293 255.448 155.589 255.448C155.169 255.448 154.39 255.418 153.97 255.403V255.882C154.48 255.882 154.764 255.957 154.914 256.122C155.049 256.257 155.229 256.557 155.334 256.812C155.949 258.236 156.533 259.63 157.073 260.934C156.488 262.313 155.904 263.647 155.514 264.501C154.24 261.578 152.861 258.281 152.456 257.276C152.306 256.902 152.216 256.557 152.216 256.392C152.216 256.152 152.321 255.927 153.325 255.882V255.403C152.861 255.433 152.201 255.448 151.392 255.448C150.972 255.448 150.088 255.418 149.713 255.403V255.882C150.133 255.882 150.418 255.957 150.567 256.122C150.702 256.257 150.882 256.557 150.987 256.812C152.411 260.049 153.61 262.822 154.959 266.165H155.529C156.143 264.606 156.758 263.227 157.417 261.743C158.392 264.096 158.766 265.026 159.186 266.165H159.726C161.06 262.852 162.334 259.72 163.683 256.557C163.788 256.317 163.893 256.152 164.073 256.047C164.222 255.957 164.447 255.897 164.762 255.882V255.403C164.492 255.418 163.788 255.448 163.308 255.448C162.709 255.448 162.064 255.433 161.659 255.403V255.882C162.619 255.942 162.724 256.107 162.724 256.392C162.724 256.497 162.709 256.767 162.469 257.396C161.644 259.615 160.22 263.197 159.696 264.516ZM170.716 255.223C167.629 255.223 165.23 257.666 165.23 260.889C165.23 263.991 167.479 266.21 170.461 266.21C173.579 266.21 175.857 263.797 175.857 260.529C175.857 257.576 173.789 255.223 170.716 255.223ZM170.686 265.565C168.063 265.565 166.519 263.497 166.519 260.589C166.519 257.711 168.243 255.867 170.446 255.867C172.665 255.867 174.568 257.636 174.568 260.904C174.568 263.812 172.89 265.565 170.686 265.565ZM180.039 261.099C180.369 261.129 180.773 261.144 181.163 261.144H181.568C182.947 263.542 183.756 264.681 184.296 265.206C184.94 265.85 186.124 266.105 187.009 266.105L187.054 265.7C186.259 265.55 185.63 265.011 184.85 264.081C184.221 263.317 183.501 262.268 182.737 260.964C184.251 260.499 185.06 259.435 185.06 258.266C185.06 256.017 183.261 255.418 181.013 255.418C180.668 255.418 179.799 255.433 179.379 255.433C178.72 255.433 177.925 255.418 177.626 255.403V255.882C178.165 255.912 178.54 255.972 178.705 256.152C178.87 256.317 178.915 256.647 178.915 257.201V264.246C178.915 264.726 178.855 265.041 178.78 265.191C178.69 265.355 178.405 265.49 177.626 265.535V266.015C178.075 266 178.78 265.97 179.409 265.97C180.009 265.97 180.923 266 181.343 266.015V265.535C180.578 265.505 180.294 265.37 180.189 265.221C180.084 265.071 180.039 264.861 180.039 264.216V261.099ZM181.088 260.589C180.698 260.589 180.294 260.559 180.039 260.529V256.002C180.204 255.987 180.623 255.972 180.833 255.972C182.887 255.972 183.801 256.662 183.801 258.311C183.801 259.72 182.872 260.589 181.088 260.589ZM190.168 257.201C190.168 256.557 190.213 256.347 190.318 256.197C190.423 256.047 190.678 255.942 191.487 255.882V255.403C191.067 255.418 190.168 255.448 189.569 255.448C188.939 255.448 188.205 255.418 187.755 255.403V255.882C188.534 255.927 188.819 256.062 188.909 256.227C188.984 256.377 189.044 256.692 189.044 257.171V264.246C189.044 264.726 188.984 265.041 188.909 265.191C188.819 265.355 188.534 265.49 187.755 265.535V266.015C188.205 266 189.898 265.97 190.528 265.97C191.997 265.97 193.751 266 194.98 266.015C195.219 265.266 195.474 264.441 195.684 263.512L195.189 263.392C195.01 263.842 194.74 264.411 194.515 264.726C194.155 265.221 193.556 265.43 192.491 265.43C191.217 265.43 190.498 265.311 190.288 264.936C190.183 264.756 190.168 264.411 190.168 264.141V257.201ZM198.116 265.97C198.566 265.97 199.54 266 200.17 266C203.812 266 206.435 264.381 206.435 260.529C206.435 257.441 204.607 255.403 200.53 255.403C199.945 255.403 198.491 255.433 198.116 255.433C197.487 255.433 196.782 255.418 196.333 255.403V255.882C197.112 255.927 197.397 256.062 197.487 256.227C197.562 256.377 197.622 256.692 197.622 257.171V264.246C197.622 264.726 197.562 265.041 197.487 265.191C197.397 265.355 197.112 265.49 196.333 265.535V266.015C196.782 266 197.487 265.97 198.116 265.97ZM198.746 256.047C199.151 256.017 199.765 256.017 200.125 256.017C204.082 256.017 205.146 258.026 205.146 260.709C205.146 263.872 203.228 265.355 200.679 265.355C199.675 265.355 199.031 265.221 198.866 264.891C198.761 264.681 198.746 264.186 198.746 263.857V256.047ZM210.773 259.645C209.844 259.045 209.364 258.371 209.364 257.621C209.364 256.632 210.069 255.867 211.343 255.867C212.557 255.867 213.037 256.437 213.336 257.681L213.861 257.636C213.756 257.037 213.651 256.062 213.606 255.583C213.142 255.403 212.497 255.238 211.658 255.238C209.649 255.238 208.375 256.407 208.375 258.011C208.375 259.225 209.109 260.109 210.174 260.784L211.553 261.668C212.497 262.268 212.947 262.792 212.947 263.797C212.947 264.906 212.122 265.58 210.803 265.58C209.304 265.58 208.735 264.711 208.39 263.377L207.85 263.437C207.925 264.141 208.075 265.011 208.225 265.625C208.63 265.955 209.709 266.225 210.713 266.225C212.737 266.225 214.011 264.996 214.011 263.227C214.011 262.148 213.411 261.353 212.077 260.499L210.773 259.645Z" fill="white"/>
<path d="M151.437 107.571C150.565 107.502 150.344 107.281 150.011 106.298L148.116 100.791C147.798 99.8644 147.479 98.9789 147.203 98.0519L146.373 98.3148C146.068 99.2695 145.819 99.9474 145.404 101.04L143.329 106.409C142.955 107.377 142.609 107.474 141.876 107.571V108.014C142.595 107.986 143.232 107.972 143.578 107.972C143.924 107.972 144.477 107.986 145.155 108.014V107.571C144.076 107.488 143.979 107.35 143.979 107.073C143.979 106.907 144.09 106.478 144.228 106.118L144.92 104.195H148.199L148.835 106.104C148.946 106.423 149.084 106.907 149.084 107.087C149.084 107.419 148.974 107.53 147.895 107.571V108.014C148.669 107.986 149.154 107.972 149.596 107.972C150.039 107.972 150.634 107.986 151.437 108.014V107.571ZM146.622 99.5324L148.005 103.628H145.127L146.622 99.5324ZM158.538 106.769C158.137 105.676 157.666 104.306 157.21 103.033C157.099 102.728 157.002 102.396 157.002 102.244C157.002 101.967 157.14 101.829 157.915 101.801V101.373C157.583 101.386 157.071 101.4 156.532 101.4C156.117 101.4 155.397 101.4 155.051 101.373V101.801C155.605 101.843 155.895 101.94 156.061 102.632C155.536 104.015 154.858 105.648 154.442 106.769C154.083 105.717 153.585 104.25 153.211 103.033C153.114 102.728 153.017 102.369 153.017 102.217C153.017 101.94 153.197 101.829 153.958 101.801V101.373C153.626 101.386 153.087 101.4 152.547 101.4C152.132 101.4 151.316 101.4 150.97 101.373V101.801C151.592 101.843 151.786 101.912 152.049 102.604C153.031 105.233 153.681 107.239 153.958 108.152H154.456C154.747 107.322 155.743 104.845 156.352 103.31C157.21 105.551 157.846 107.336 158.095 108.152H158.593C158.898 107.239 160.226 103.697 160.655 102.604C160.904 101.981 161.125 101.857 161.748 101.801V101.373C161.291 101.4 160.849 101.4 160.42 101.4C159.977 101.4 159.465 101.386 159.05 101.373V101.801C159.852 101.829 160.005 101.981 160.005 102.23C160.005 102.383 159.963 102.618 159.839 102.978C159.368 104.361 158.87 105.759 158.538 106.769ZM168.081 107.142C167.901 107.253 167.68 107.35 167.486 107.35C167.03 107.35 166.85 106.976 166.85 105.676C166.85 104.832 166.891 103.586 166.891 103.005C166.891 102.41 166.85 102.037 166.67 101.76C166.435 101.414 165.937 101.123 165.217 101.123C164.664 101.123 163.764 101.428 163.003 102.037C162.657 102.313 162.422 102.59 162.422 102.936C162.422 103.213 162.547 103.434 162.754 103.766L163.64 103.31C163.474 103.047 163.377 102.798 163.377 102.59C163.377 102.147 163.986 101.788 164.788 101.788C165.245 101.788 165.577 101.995 165.757 102.286C165.909 102.535 165.964 102.936 165.964 103.822C165.964 104.333 165.854 104.403 165.342 104.527C163.847 104.901 163.197 105.081 162.713 105.426C162.353 105.676 162.187 106.035 162.187 106.492C162.187 107.35 162.976 108.166 164.083 108.166C164.788 108.166 165.383 107.779 165.992 107.281C166.283 107.917 166.615 108.125 166.96 108.125C167.32 108.125 167.694 107.945 168.289 107.405L168.081 107.142ZM165.964 106.298C165.964 106.699 165.937 106.838 165.674 107.045C165.425 107.253 164.913 107.433 164.373 107.433C163.709 107.433 163.211 106.976 163.211 106.423C163.211 105.689 163.598 105.385 165.964 104.845V106.298ZM172.175 107.585C171.442 107.543 171.221 107.447 171.11 107.308C170.999 107.156 170.972 106.962 170.972 106.354V104.14C170.972 103.337 171.027 103.019 171.331 102.659C171.58 102.355 171.885 102.161 172.162 102.161C172.452 102.161 172.743 102.313 173.075 102.576L173.753 101.649C173.448 101.373 173.061 101.179 172.743 101.179C172.231 101.179 171.691 101.525 170.985 102.535V101.179L170.847 101.082L169.201 102.023V102.203C169.602 102.438 169.851 102.618 169.948 102.811C170.045 103.047 170.072 103.254 170.072 103.835V106.381C170.072 106.948 170.017 107.267 169.865 107.391C169.699 107.53 169.505 107.543 169.007 107.585V108.014C169.464 108 169.989 107.986 170.57 107.986C171.221 107.986 171.829 108 172.175 108.014V107.585ZM179.303 105.717C179.303 106.257 179.275 106.492 179.095 106.713C178.805 107.073 178.168 107.391 177.463 107.391C176.19 107.391 175.124 106.395 175.124 104.666C175.124 103.019 176.093 101.815 177.587 101.815C178.168 101.815 178.694 102.009 179.026 102.313C179.303 102.576 179.303 102.964 179.303 103.614V105.717ZM179.317 101.428C178.749 101.262 178.376 101.193 177.975 101.193C175.719 101.193 174.156 102.867 174.156 105.067C174.156 106.935 175.498 108.194 176.965 108.194C177.726 108.194 178.404 107.903 179.289 107.184V108.18L179.4 108.263L181.281 107.668V107.308C180.617 107.308 180.424 107.267 180.341 107.156C180.23 107.018 180.202 106.796 180.202 106.257V100.196C180.202 99.5739 180.23 98.0657 180.285 97.0695L180.161 96.9865L178.445 97.9966V98.2041C178.86 98.467 179.026 98.5777 179.123 98.6884C179.275 98.8544 179.303 99.1311 179.303 99.643L179.317 101.428ZM186.452 102.95C186.41 102.438 186.383 101.677 186.369 101.373C185.94 101.234 185.428 101.137 184.999 101.137C183.602 101.137 182.606 101.912 182.606 102.991C182.606 103.849 183.062 104.43 184.238 105.039C185.663 105.772 185.843 106.104 185.843 106.672C185.843 107.267 185.262 107.64 184.598 107.64C183.989 107.64 183.588 107.557 183.256 107.211C183.007 106.948 182.882 106.699 182.758 106.187L182.343 106.215C182.37 106.81 182.44 107.585 182.467 107.834C183.076 108.138 183.685 108.235 184.307 108.235C185.691 108.235 186.604 107.322 186.604 106.257C186.604 105.496 186.314 104.873 184.847 104.154C183.657 103.572 183.38 103.185 183.38 102.618C183.38 102.106 183.878 101.691 184.556 101.691C185.082 101.691 185.414 101.774 185.649 102.078C185.816 102.3 185.912 102.549 186.023 102.978L186.452 102.95ZM146.702 124.769C146.3 123.676 145.83 122.306 145.373 121.033C145.263 120.728 145.166 120.396 145.166 120.244C145.166 119.967 145.304 119.829 146.079 119.801V119.373C145.747 119.386 145.235 119.4 144.695 119.4C144.28 119.4 143.561 119.4 143.215 119.373V119.801C143.768 119.843 144.059 119.94 144.225 120.632C143.699 122.015 143.021 123.648 142.606 124.769C142.246 123.717 141.748 122.25 141.375 121.033C141.278 120.728 141.181 120.369 141.181 120.217C141.181 119.94 141.361 119.829 142.122 119.801V119.373C141.79 119.386 141.25 119.4 140.711 119.4C140.296 119.4 139.479 119.4 139.133 119.373V119.801C139.756 119.843 139.95 119.912 140.213 120.604C141.195 123.233 141.845 125.239 142.122 126.152H142.62C142.911 125.322 143.907 122.845 144.516 121.31C145.373 123.551 146.01 125.336 146.259 126.152H146.757C147.061 125.239 148.39 121.697 148.819 120.604C149.068 119.981 149.289 119.857 149.912 119.801V119.373C149.455 119.4 149.012 119.4 148.583 119.4C148.141 119.4 147.629 119.386 147.214 119.373V119.801C148.016 119.829 148.168 119.981 148.168 120.23C148.168 120.383 148.127 120.618 148.002 120.978C147.532 122.361 147.034 123.759 146.702 124.769ZM152.435 116.633C152.435 116.19 152.117 115.886 151.716 115.886C151.329 115.886 150.983 116.176 150.983 116.633C150.983 117.062 151.315 117.366 151.716 117.366C152.131 117.366 152.435 117.062 152.435 116.633ZM152.269 119.082L150.581 120.023V120.203C150.997 120.452 151.259 120.632 151.329 120.811C151.439 121.088 151.453 121.379 151.453 121.877V124.423C151.453 124.865 151.398 125.142 151.329 125.281C151.246 125.433 151.107 125.543 150.388 125.585V126.014C150.803 126 151.342 125.986 151.924 125.986C152.477 125.986 153.058 126 153.459 126.014V125.585C152.712 125.53 152.588 125.46 152.491 125.322C152.394 125.184 152.352 124.99 152.352 124.395V121.794C152.352 121.13 152.352 119.981 152.394 119.165L152.269 119.082ZM161.706 125.585C160.973 125.516 160.848 125.433 160.738 125.294C160.627 125.156 160.613 124.907 160.613 124.27V122.001C160.613 120.853 160.585 120.327 160.253 119.829C159.963 119.386 159.52 119.179 158.98 119.179C158.413 119.179 157.555 119.483 156.365 120.313V119.165L156.241 119.082L154.594 120.023V120.203C155.01 120.452 155.272 120.632 155.342 120.811C155.452 121.088 155.466 121.351 155.466 121.849V124.423C155.466 124.865 155.411 125.156 155.342 125.294C155.259 125.447 155.12 125.543 154.401 125.585V126.014C154.816 126 155.328 125.986 155.909 125.986C156.462 125.986 157.071 126 157.472 126.014V125.585C156.725 125.53 156.601 125.46 156.504 125.322C156.407 125.184 156.365 124.99 156.365 124.395V121.794C156.365 121.13 156.393 120.881 156.628 120.632C156.947 120.3 157.735 119.995 158.33 119.995C158.98 119.995 159.354 120.217 159.534 120.687C159.728 121.24 159.741 122.527 159.741 123.316C159.741 124.464 159.714 125.114 159.548 125.308C159.437 125.433 159.243 125.53 158.635 125.585V126.014C159.146 126 159.741 125.986 160.17 125.986C160.793 125.986 161.263 126 161.706 126.014V125.585ZM170.056 125.585C169.323 125.516 169.199 125.433 169.088 125.294C168.977 125.156 168.963 124.907 168.963 124.27V122.001C168.963 120.853 168.936 120.327 168.604 119.829C168.313 119.386 167.87 119.179 167.331 119.179C166.763 119.179 165.906 119.483 164.716 120.313V119.165L164.591 119.082L162.945 120.023V120.203C163.36 120.452 163.623 120.632 163.692 120.811C163.803 121.088 163.816 121.351 163.816 121.849V124.423C163.816 124.865 163.761 125.156 163.692 125.294C163.609 125.447 163.47 125.543 162.751 125.585V126.014C163.166 126 163.678 125.986 164.259 125.986C164.813 125.986 165.421 126 165.823 126.014V125.585C165.075 125.53 164.951 125.46 164.854 125.322C164.757 125.184 164.716 124.99 164.716 124.395V121.794C164.716 121.13 164.743 120.881 164.979 120.632C165.297 120.3 166.085 119.995 166.68 119.995C167.331 119.995 167.704 120.217 167.884 120.687C168.078 121.24 168.092 122.527 168.092 123.316C168.092 124.464 168.064 125.114 167.898 125.308C167.787 125.433 167.594 125.53 166.985 125.585V126.014C167.497 126 168.092 125.986 168.521 125.986C169.143 125.986 169.614 126 170.056 126.014V125.585ZM173.149 116.633C173.149 116.19 172.831 115.886 172.43 115.886C172.042 115.886 171.696 116.176 171.696 116.633C171.696 117.062 172.028 117.366 172.43 117.366C172.845 117.366 173.149 117.062 173.149 116.633ZM172.983 119.082L171.295 120.023V120.203C171.71 120.452 171.973 120.632 172.042 120.811C172.153 121.088 172.167 121.379 172.167 121.877V124.423C172.167 124.865 172.111 125.142 172.042 125.281C171.959 125.433 171.821 125.543 171.101 125.585V126.014C171.516 126 172.056 125.986 172.637 125.986C173.19 125.986 173.772 126 174.173 126.014V125.585C173.426 125.53 173.301 125.46 173.204 125.322C173.107 125.184 173.066 124.99 173.066 124.395V121.794C173.066 121.13 173.066 119.981 173.107 119.165L172.983 119.082ZM182.42 125.585C181.686 125.516 181.562 125.433 181.451 125.294C181.34 125.156 181.327 124.907 181.327 124.27V122.001C181.327 120.853 181.299 120.327 180.967 119.829C180.676 119.386 180.234 119.179 179.694 119.179C179.127 119.179 178.269 119.483 177.079 120.313V119.165L176.954 119.082L175.308 120.023V120.203C175.723 120.452 175.986 120.632 176.055 120.811C176.166 121.088 176.18 121.351 176.18 121.849V124.423C176.18 124.865 176.124 125.156 176.055 125.294C175.972 125.447 175.834 125.543 175.114 125.585V126.014C175.529 126 176.041 125.986 176.622 125.986C177.176 125.986 177.785 126 178.186 126.014V125.585C177.439 125.53 177.314 125.46 177.217 125.322C177.12 125.184 177.079 124.99 177.079 124.395V121.794C177.079 121.13 177.107 120.881 177.342 120.632C177.66 120.3 178.449 119.995 179.044 119.995C179.694 119.995 180.068 120.217 180.247 120.687C180.441 121.24 180.455 122.527 180.455 123.316C180.455 124.464 180.427 125.114 180.261 125.308C180.151 125.433 179.957 125.53 179.348 125.585V126.014C179.86 126 180.455 125.986 180.884 125.986C181.506 125.986 181.977 126 182.42 126.014V125.585ZM189.774 119.663H187.934C187.491 119.303 187.007 119.137 186.398 119.137C184.917 119.137 183.797 120.217 183.797 121.476C183.797 122.347 184.184 123.039 184.986 123.496L183.88 124.63C183.88 125.101 184.281 125.613 184.903 125.848C183.603 126.802 183.354 127.245 183.354 127.688C183.354 128.643 184.419 129.542 186.066 129.542C188.058 129.542 189.705 128.311 189.705 126.664C189.705 126.042 189.428 125.64 188.944 125.419C188.459 125.198 187.92 125.17 186.453 125.17C185.789 125.17 185.374 125.114 185.139 124.907C184.986 124.769 184.876 124.575 184.876 124.409C184.876 124.229 185.056 123.925 185.319 123.772C185.402 123.731 185.471 123.703 185.609 123.703C185.747 123.703 185.983 123.731 186.246 123.731C187.698 123.731 188.722 122.762 188.722 121.406C188.722 121.005 188.653 120.549 188.445 120.272H189.774V119.663ZM188.833 127.287C188.833 128.158 187.809 128.892 186.467 128.892C185.18 128.892 184.378 128.269 184.378 127.48C184.378 127.01 184.613 126.512 185.18 126.138C185.374 126.014 185.498 125.986 186.038 125.986C188.335 125.986 188.833 126.415 188.833 127.287ZM184.807 121.323C184.807 120.217 185.429 119.635 186.273 119.635C187.145 119.635 187.74 120.286 187.74 121.614C187.74 122.61 187.228 123.233 186.356 123.233C185.457 123.233 184.807 122.569 184.807 121.323ZM142.547 137.815C141.994 137.303 141.343 137.137 140.804 137.137C139.185 137.137 137.276 138.424 137.276 141.025C137.276 143.004 138.645 144.235 140.236 144.235C141.15 144.235 141.911 143.806 142.768 142.948L142.464 142.616C141.8 143.101 141.247 143.336 140.513 143.336C139.323 143.336 138.189 142.409 138.189 140.499C138.189 138.839 139.102 137.94 140.126 137.94C140.762 137.94 141.247 138.106 141.814 138.645L142.547 137.815ZM146.658 143.585C145.925 143.543 145.704 143.447 145.593 143.308C145.482 143.156 145.455 142.962 145.455 142.354V140.14C145.455 139.337 145.51 139.019 145.814 138.659C146.063 138.355 146.368 138.161 146.645 138.161C146.935 138.161 147.226 138.313 147.558 138.576L148.236 137.649C147.931 137.373 147.544 137.179 147.226 137.179C146.714 137.179 146.174 137.525 145.469 138.535V137.179L145.33 137.082L143.684 138.023V138.203C144.085 138.438 144.334 138.618 144.431 138.811C144.528 139.047 144.555 139.254 144.555 139.835V142.381C144.555 142.948 144.5 143.267 144.348 143.391C144.182 143.53 143.988 143.543 143.49 143.585V144.014C143.947 144 144.472 143.986 145.053 143.986C145.704 143.986 146.313 144 146.658 144.014V143.585ZM154.229 139.891C154.229 137.981 153.163 137.137 151.697 137.137C149.995 137.137 148.639 138.673 148.639 140.79C148.639 143.018 149.967 144.235 151.641 144.235C152.43 144.235 153.509 143.792 154.326 142.935L154.035 142.603C153.329 143.114 152.693 143.336 152.112 143.336C150.756 143.336 149.552 142.492 149.552 140.333C149.552 140.237 149.566 140.043 149.594 139.905L154.229 139.891ZM149.663 139.42C149.801 138.493 150.548 137.663 151.586 137.663C152.61 137.663 153.136 138.3 153.136 138.978C153.136 139.268 152.997 139.31 152.734 139.337C152.278 139.393 151.254 139.42 149.663 139.42ZM161.359 143.142C161.179 143.253 160.958 143.35 160.764 143.35C160.308 143.35 160.128 142.976 160.128 141.676C160.128 140.832 160.169 139.586 160.169 139.005C160.169 138.41 160.128 138.037 159.948 137.76C159.713 137.414 159.215 137.123 158.495 137.123C157.942 137.123 157.042 137.428 156.281 138.037C155.935 138.313 155.7 138.59 155.7 138.936C155.7 139.213 155.825 139.434 156.032 139.766L156.918 139.31C156.752 139.047 156.655 138.798 156.655 138.59C156.655 138.147 157.264 137.788 158.066 137.788C158.523 137.788 158.855 137.995 159.035 138.286C159.187 138.535 159.242 138.936 159.242 139.822C159.242 140.333 159.132 140.403 158.62 140.527C157.125 140.901 156.475 141.081 155.991 141.426C155.631 141.676 155.465 142.035 155.465 142.492C155.465 143.35 156.254 144.166 157.361 144.166C158.066 144.166 158.661 143.779 159.27 143.281C159.56 143.917 159.892 144.125 160.238 144.125C160.598 144.125 160.972 143.945 161.567 143.405L161.359 143.142ZM159.242 142.298C159.242 142.699 159.215 142.838 158.952 143.045C158.703 143.253 158.191 143.433 157.651 143.433C156.987 143.433 156.489 142.976 156.489 142.423C156.489 141.689 156.876 141.385 159.242 140.845V142.298ZM163.06 138.134C163.004 140.292 162.99 141.454 162.99 142.354C162.99 143.018 163.06 143.308 163.212 143.599C163.406 143.931 163.807 144.152 164.319 144.152C164.969 144.152 165.481 143.917 166.062 143.35L165.827 143.059C165.453 143.308 165.121 143.474 164.775 143.474C164.457 143.474 164.208 143.336 164.084 143.101C163.973 142.907 163.917 142.589 163.917 142.104C163.917 141.772 163.917 140.347 163.945 138.134H165.758V137.525H163.973C164.028 135.851 164.028 135.837 164.028 135.837H163.668C163.281 136.944 163.073 137.442 162.146 137.801V138.134H163.06ZM168.71 134.633C168.71 134.19 168.392 133.886 167.991 133.886C167.603 133.886 167.258 134.176 167.258 134.633C167.258 135.062 167.59 135.366 167.991 135.366C168.406 135.366 168.71 135.062 168.71 134.633ZM168.544 137.082L166.856 138.023V138.203C167.271 138.452 167.534 138.632 167.603 138.811C167.714 139.088 167.728 139.379 167.728 139.877V142.423C167.728 142.865 167.673 143.142 167.603 143.281C167.52 143.433 167.382 143.543 166.663 143.585V144.014C167.078 144 167.617 143.986 168.198 143.986C168.752 143.986 169.333 144 169.734 144.014V143.585C168.987 143.53 168.863 143.46 168.766 143.322C168.669 143.184 168.627 142.99 168.627 142.395V139.794C168.627 139.13 168.627 137.981 168.669 137.165L168.544 137.082ZM173.532 142.838C173.131 141.8 172.578 140.292 172.107 139.019C171.997 138.728 171.872 138.369 171.872 138.217C171.872 137.94 172.066 137.829 172.854 137.801V137.373C172.508 137.386 171.997 137.4 171.429 137.4C170.986 137.4 170.226 137.4 169.866 137.373V137.801C170.419 137.843 170.613 137.926 170.903 138.618C172.01 141.247 172.799 143.239 173.103 144.152H173.615C173.947 143.239 175.414 139.683 175.871 138.618C176.133 137.995 176.438 137.857 176.964 137.801V137.373C176.479 137.4 176.078 137.4 175.622 137.4C175.151 137.4 174.639 137.386 174.196 137.373V137.801C175.04 137.829 175.206 137.981 175.206 138.23C175.206 138.383 175.165 138.632 175.027 138.991L173.532 142.838ZM179.493 134.633C179.493 134.19 179.175 133.886 178.773 133.886C178.386 133.886 178.04 134.176 178.04 134.633C178.04 135.062 178.372 135.366 178.773 135.366C179.188 135.366 179.493 135.062 179.493 134.633ZM179.327 137.082L177.639 138.023V138.203C178.054 138.452 178.317 138.632 178.386 138.811C178.497 139.088 178.51 139.379 178.51 139.877V142.423C178.51 142.865 178.455 143.142 178.386 143.281C178.303 143.433 178.164 143.543 177.445 143.585V144.014C177.86 144 178.4 143.986 178.981 143.986C179.534 143.986 180.115 144 180.517 144.014V143.585C179.769 143.53 179.645 143.46 179.548 143.322C179.451 143.184 179.41 142.99 179.41 142.395V139.794C179.41 139.13 179.41 137.981 179.451 137.165L179.327 137.082ZM182.233 138.134C182.177 140.292 182.164 141.454 182.164 142.354C182.164 143.018 182.233 143.308 182.385 143.599C182.579 143.931 182.98 144.152 183.492 144.152C184.142 144.152 184.654 143.917 185.235 143.35L185 143.059C184.626 143.308 184.294 143.474 183.948 143.474C183.63 143.474 183.381 143.336 183.257 143.101C183.146 142.907 183.091 142.589 183.091 142.104C183.091 141.772 183.091 140.347 183.118 138.134H184.931V137.525H183.146C183.201 135.851 183.201 135.837 183.201 135.837H182.842C182.454 136.944 182.247 137.442 181.32 137.801V138.134H182.233ZM189.367 143.599C189.948 142.146 190.834 139.683 191.235 138.618C191.47 137.995 191.802 137.857 192.328 137.801V137.373C191.844 137.4 191.443 137.4 190.986 137.4C190.516 137.4 190.018 137.386 189.575 137.373V137.801C190.419 137.829 190.543 137.981 190.543 138.23C190.543 138.383 190.502 138.645 190.405 138.991C189.99 140.403 189.436 141.8 189.049 142.838C188.606 141.8 187.984 140.292 187.486 139.019C187.375 138.728 187.236 138.369 187.236 138.217C187.236 137.94 187.389 137.829 188.177 137.801V137.373C187.831 137.386 187.361 137.4 186.794 137.4C186.351 137.4 185.59 137.4 185.23 137.373V137.801C185.95 137.829 186.047 138.064 186.475 139.074L188.551 143.945C188.08 145.162 187.264 146.186 186.13 146.753L186.725 147.556C188.025 146.615 188.745 145.148 189.367 143.599Z" fill="white"/>
<path d="M146.858 360.335C146.858 358.882 147.135 358.716 148.159 358.661V358.218C147.633 358.232 147.19 358.246 146.526 358.246C145.834 358.246 145.239 358.232 144.741 358.218V358.661C145.834 358.716 146.069 358.882 146.18 360.279C146.221 360.791 146.235 362.576 146.235 363.503C146.235 365.731 146.055 367.433 143.219 367.433C142.057 367.433 141.144 367.031 140.646 366.201C140.355 365.703 140.244 364.859 140.244 363.946C140.244 362.77 140.244 361.027 140.258 359.878C140.258 359.283 140.3 359.09 140.397 358.951C140.493 358.813 140.742 358.716 141.49 358.661V358.218C141.102 358.232 140.258 358.259 139.705 358.259C139.124 358.259 138.446 358.232 138.031 358.218V358.661C138.75 358.702 139.013 358.827 139.096 358.979C139.165 359.117 139.22 359.408 139.22 359.851V364.486C139.22 365.482 139.386 366.243 139.746 366.755C140.397 367.682 141.628 368.208 143.039 368.208C145.751 368.208 146.872 366.796 146.872 364.375C146.872 363.531 146.858 360.93 146.858 360.335ZM150.061 366.423C150.061 366.865 150.006 367.156 149.937 367.294C149.854 367.447 149.716 367.543 148.996 367.585V368.014C149.411 368 149.937 367.986 150.518 367.986C151.071 367.986 151.68 368 152.081 368.014V367.585C151.334 367.543 151.21 367.46 151.113 367.322C151.016 367.184 150.975 366.99 150.975 366.395V360.196C150.975 359.574 151.002 358.066 151.058 357.07L150.933 356.987L149.204 357.997V358.204C149.619 358.467 149.785 358.564 149.882 358.675C150.02 358.854 150.061 359.034 150.061 359.602V366.423ZM153.919 362.134C153.864 364.292 153.85 365.454 153.85 366.354C153.85 367.018 153.919 367.308 154.071 367.599C154.265 367.931 154.666 368.152 155.178 368.152C155.828 368.152 156.34 367.917 156.921 367.35L156.686 367.059C156.313 367.308 155.981 367.474 155.635 367.474C155.316 367.474 155.067 367.336 154.943 367.101C154.832 366.907 154.777 366.589 154.777 366.104C154.777 365.772 154.777 364.347 154.804 362.134H156.617V361.525H154.832C154.887 359.851 154.887 359.837 154.887 359.837H154.528C154.14 360.944 153.933 361.442 153.006 361.801V362.134H153.919ZM159.57 358.633C159.57 358.19 159.251 357.886 158.85 357.886C158.463 357.886 158.117 358.176 158.117 358.633C158.117 359.062 158.449 359.366 158.85 359.366C159.265 359.366 159.57 359.062 159.57 358.633ZM159.404 361.082L157.716 362.023V362.203C158.131 362.452 158.394 362.632 158.463 362.811C158.573 363.088 158.587 363.379 158.587 363.877V366.423C158.587 366.865 158.532 367.142 158.463 367.281C158.38 367.433 158.241 367.543 157.522 367.585V368.014C157.937 368 158.477 367.986 159.058 367.986C159.611 367.986 160.192 368 160.594 368.014V367.585C159.846 367.53 159.722 367.46 159.625 367.322C159.528 367.184 159.487 366.99 159.487 366.395V363.794C159.487 363.13 159.487 361.981 159.528 361.165L159.404 361.082ZM167.512 362.41C167.318 361.718 166.793 361.179 165.962 361.179C165.395 361.179 164.69 361.483 163.5 362.313V361.165L163.375 361.082L161.729 362.023V362.203C162.144 362.452 162.407 362.632 162.476 362.811C162.586 363.088 162.6 363.351 162.6 363.849V366.423C162.6 366.865 162.545 367.156 162.476 367.294C162.393 367.447 162.254 367.543 161.535 367.585V368.014C161.95 368 162.49 367.986 163.071 367.986C163.624 367.986 164.205 368 164.607 368.014V367.585C163.859 367.53 163.735 367.46 163.638 367.322C163.541 367.184 163.5 366.99 163.5 366.395V363.752C163.5 363.088 163.527 362.867 163.763 362.618C164.081 362.286 164.828 361.995 165.368 361.995C166.018 361.995 166.364 362.217 166.544 362.687C166.737 363.24 166.751 364.513 166.751 365.302C166.751 366.395 166.737 367.045 166.557 367.308C166.474 367.433 166.336 367.53 165.63 367.585V368.014C166.142 368 166.751 367.986 167.18 367.986C167.803 367.986 168.273 368 168.716 368.014V367.585C167.983 367.516 167.858 367.433 167.747 367.294C167.637 367.156 167.623 366.907 167.623 366.27V363.794C167.623 363.13 167.65 362.908 167.886 362.659C168.204 362.327 168.91 361.995 169.504 361.995C170.155 361.995 170.473 362.217 170.653 362.687C170.847 363.24 170.86 364.513 170.86 365.302C170.86 366.395 170.847 367.045 170.667 367.308C170.584 367.433 170.445 367.53 169.74 367.585V368.014C170.252 368 170.833 367.986 171.262 367.986C171.884 367.986 172.382 368 172.825 368.014V367.585C172.092 367.516 171.967 367.433 171.857 367.294C171.746 367.156 171.732 366.907 171.732 366.27V364.043C171.732 362.895 171.691 362.369 171.372 361.871C171.082 361.428 170.639 361.179 170.099 361.179C169.532 361.179 168.564 361.58 167.512 362.41ZM179.917 367.142C179.738 367.253 179.516 367.35 179.323 367.35C178.866 367.35 178.686 366.976 178.686 365.676C178.686 364.832 178.728 363.586 178.728 363.005C178.728 362.41 178.686 362.037 178.506 361.76C178.271 361.414 177.773 361.123 177.053 361.123C176.5 361.123 175.601 361.428 174.84 362.037C174.494 362.313 174.259 362.59 174.259 362.936C174.259 363.213 174.383 363.434 174.591 363.766L175.476 363.31C175.31 363.047 175.213 362.798 175.213 362.59C175.213 362.147 175.822 361.788 176.625 361.788C177.081 361.788 177.413 361.995 177.593 362.286C177.745 362.535 177.801 362.936 177.801 363.822C177.801 364.333 177.69 364.403 177.178 364.527C175.684 364.901 175.033 365.081 174.549 365.426C174.189 365.676 174.023 366.035 174.023 366.492C174.023 367.35 174.812 368.166 175.919 368.166C176.625 368.166 177.219 367.779 177.828 367.281C178.119 367.917 178.451 368.125 178.797 368.125C179.157 368.125 179.53 367.945 180.125 367.405L179.917 367.142ZM177.801 366.298C177.801 366.699 177.773 366.838 177.51 367.045C177.261 367.253 176.749 367.433 176.209 367.433C175.545 367.433 175.047 366.976 175.047 366.423C175.047 365.689 175.435 365.385 177.801 364.845V366.298ZM181.618 362.134C181.563 364.292 181.549 365.454 181.549 366.354C181.549 367.018 181.618 367.308 181.77 367.599C181.964 367.931 182.365 368.152 182.877 368.152C183.527 368.152 184.039 367.917 184.62 367.35L184.385 367.059C184.012 367.308 183.68 367.474 183.334 367.474C183.015 367.474 182.766 367.336 182.642 367.101C182.531 366.907 182.476 366.589 182.476 366.104C182.476 365.772 182.476 364.347 182.504 362.134H184.316V361.525H182.531C182.587 359.851 182.587 359.837 182.587 359.837H182.227C181.839 360.944 181.632 361.442 180.705 361.801V362.134H181.618ZM190.785 363.891C190.785 361.981 189.719 361.137 188.253 361.137C186.551 361.137 185.195 362.673 185.195 364.79C185.195 367.018 186.523 368.235 188.197 368.235C188.986 368.235 190.065 367.792 190.882 366.935L190.591 366.603C189.885 367.114 189.249 367.336 188.668 367.336C187.312 367.336 186.108 366.492 186.108 364.333C186.108 364.237 186.122 364.043 186.15 363.905L190.785 363.891ZM186.219 363.42C186.357 362.493 187.104 361.663 188.142 361.663C189.166 361.663 189.692 362.3 189.692 362.978C189.692 363.268 189.553 363.31 189.29 363.337C188.834 363.393 187.81 363.42 186.219 363.42ZM135.545 383.717C135.545 384.257 135.517 384.492 135.338 384.713C135.047 385.073 134.411 385.391 133.705 385.391C132.432 385.391 131.367 384.395 131.367 382.666C131.367 381.019 132.335 379.815 133.829 379.815C134.411 379.815 134.936 380.009 135.268 380.313C135.545 380.576 135.545 380.964 135.545 381.614V383.717ZM135.559 379.428C134.992 379.262 134.618 379.193 134.217 379.193C131.962 379.193 130.398 380.867 130.398 383.067C130.398 384.935 131.74 386.194 133.207 386.194C133.968 386.194 134.646 385.903 135.531 385.184V386.18L135.642 386.263L137.524 385.668V385.308C136.86 385.308 136.666 385.267 136.583 385.156C136.472 385.018 136.444 384.796 136.444 384.257V378.196C136.444 377.574 136.472 376.066 136.527 375.07L136.403 374.987L134.687 375.997V376.204C135.102 376.467 135.268 376.578 135.365 376.688C135.517 376.854 135.545 377.131 135.545 377.643L135.559 379.428ZM144.645 385.142C144.465 385.253 144.244 385.35 144.05 385.35C143.594 385.35 143.414 384.976 143.414 383.676C143.414 382.832 143.455 381.586 143.455 381.005C143.455 380.41 143.414 380.037 143.234 379.76C142.999 379.414 142.501 379.123 141.781 379.123C141.228 379.123 140.328 379.428 139.567 380.037C139.221 380.313 138.986 380.59 138.986 380.936C138.986 381.213 139.111 381.434 139.318 381.766L140.204 381.31C140.038 381.047 139.941 380.798 139.941 380.59C139.941 380.147 140.55 379.788 141.352 379.788C141.809 379.788 142.141 379.995 142.321 380.286C142.473 380.535 142.528 380.936 142.528 381.822C142.528 382.333 142.417 382.403 141.906 382.527C140.411 382.901 139.761 383.081 139.277 383.426C138.917 383.676 138.751 384.035 138.751 384.492C138.751 385.35 139.54 386.166 140.646 386.166C141.352 386.166 141.947 385.779 142.556 385.281C142.846 385.917 143.178 386.125 143.524 386.125C143.884 386.125 144.258 385.945 144.853 385.405L144.645 385.142ZM142.528 384.298C142.528 384.699 142.501 384.838 142.238 385.045C141.989 385.253 141.477 385.433 140.937 385.433C140.273 385.433 139.775 384.976 139.775 384.423C139.775 383.689 140.162 383.385 142.528 382.845V384.298ZM146.346 380.134C146.29 382.292 146.276 383.454 146.276 384.354C146.276 385.018 146.346 385.308 146.498 385.599C146.692 385.931 147.093 386.152 147.605 386.152C148.255 386.152 148.767 385.917 149.348 385.35L149.113 385.059C148.739 385.308 148.407 385.474 148.061 385.474C147.743 385.474 147.494 385.336 147.369 385.101C147.259 384.907 147.203 384.589 147.203 384.104C147.203 383.772 147.203 382.347 147.231 380.134H149.044V379.525H147.259C147.314 377.851 147.314 377.837 147.314 377.837H146.954C146.567 378.944 146.359 379.442 145.432 379.801V380.134H146.346ZM155.995 385.142C155.815 385.253 155.594 385.35 155.4 385.35C154.943 385.35 154.764 384.976 154.764 383.676C154.764 382.832 154.805 381.586 154.805 381.005C154.805 380.41 154.764 380.037 154.584 379.76C154.348 379.414 153.85 379.123 153.131 379.123C152.577 379.123 151.678 379.428 150.917 380.037C150.571 380.313 150.336 380.59 150.336 380.936C150.336 381.213 150.461 381.434 150.668 381.766L151.554 381.31C151.388 381.047 151.291 380.798 151.291 380.59C151.291 380.147 151.899 379.788 152.702 379.788C153.159 379.788 153.491 379.995 153.671 380.286C153.823 380.535 153.878 380.936 153.878 381.822C153.878 382.333 153.767 382.403 153.255 382.527C151.761 382.901 151.111 383.081 150.627 383.426C150.267 383.676 150.101 384.035 150.101 384.492C150.101 385.35 150.889 386.166 151.996 386.166C152.702 386.166 153.297 385.779 153.906 385.281C154.196 385.917 154.528 386.125 154.874 386.125C155.234 386.125 155.608 385.945 156.202 385.405L155.995 385.142ZM153.878 384.298C153.878 384.699 153.85 384.838 153.587 385.045C153.338 385.253 152.827 385.433 152.287 385.433C151.623 385.433 151.125 384.976 151.125 384.423C151.125 383.689 151.512 383.385 153.878 382.845V384.298ZM160.103 382.928V382.029H156.824V382.928H160.103ZM167.195 380.41C167.001 379.718 166.475 379.179 165.645 379.179C165.078 379.179 164.372 379.483 163.182 380.313V379.165L163.058 379.082L161.411 380.023V380.203C161.826 380.452 162.089 380.632 162.158 380.811C162.269 381.088 162.283 381.351 162.283 381.849V384.423C162.283 384.865 162.227 385.156 162.158 385.294C162.075 385.447 161.937 385.543 161.217 385.585V386.014C161.632 386 162.172 385.986 162.753 385.986C163.307 385.986 163.888 386 164.289 386.014V385.585C163.542 385.53 163.417 385.46 163.32 385.322C163.224 385.184 163.182 384.99 163.182 384.395V381.752C163.182 381.088 163.21 380.867 163.445 380.618C163.763 380.286 164.51 379.995 165.05 379.995C165.7 379.995 166.046 380.217 166.226 380.687C166.42 381.24 166.434 382.513 166.434 383.302C166.434 384.395 166.42 385.045 166.24 385.308C166.157 385.433 166.019 385.53 165.313 385.585V386.014C165.825 386 166.434 385.986 166.863 385.986C167.485 385.986 167.956 386 168.398 386.014V385.585C167.665 385.516 167.54 385.433 167.43 385.294C167.319 385.156 167.305 384.907 167.305 384.27V381.794C167.305 381.13 167.333 380.908 167.568 380.659C167.886 380.327 168.592 379.995 169.187 379.995C169.837 379.995 170.155 380.217 170.335 380.687C170.529 381.24 170.543 382.513 170.543 383.302C170.543 384.395 170.529 385.045 170.349 385.308C170.266 385.433 170.128 385.53 169.422 385.585V386.014C169.934 386 170.515 385.986 170.944 385.986C171.567 385.986 172.065 386 172.508 386.014V385.585C171.774 385.516 171.65 385.433 171.539 385.294C171.428 385.156 171.415 384.907 171.415 384.27V382.043C171.415 380.895 171.373 380.369 171.055 379.871C170.764 379.428 170.322 379.179 169.782 379.179C169.215 379.179 168.246 379.58 167.195 380.41ZM179.6 385.142C179.42 385.253 179.199 385.35 179.005 385.35C178.548 385.35 178.369 384.976 178.369 383.676C178.369 382.832 178.41 381.586 178.41 381.005C178.41 380.41 178.369 380.037 178.189 379.76C177.953 379.414 177.455 379.123 176.736 379.123C176.182 379.123 175.283 379.428 174.522 380.037C174.176 380.313 173.941 380.59 173.941 380.936C173.941 381.213 174.066 381.434 174.273 381.766L175.159 381.31C174.993 381.047 174.896 380.798 174.896 380.59C174.896 380.147 175.505 379.788 176.307 379.788C176.764 379.788 177.096 379.995 177.276 380.286C177.428 380.535 177.483 380.936 177.483 381.822C177.483 382.333 177.372 382.403 176.86 382.527C175.366 382.901 174.716 383.081 174.232 383.426C173.872 383.676 173.706 384.035 173.706 384.492C173.706 385.35 174.494 386.166 175.601 386.166C176.307 386.166 176.902 385.779 177.511 385.281C177.801 385.917 178.133 386.125 178.479 386.125C178.839 386.125 179.213 385.945 179.808 385.405L179.6 385.142ZM177.483 384.298C177.483 384.699 177.455 384.838 177.192 385.045C176.943 385.253 176.432 385.433 175.892 385.433C175.228 385.433 174.73 384.976 174.73 384.423C174.73 383.689 175.117 383.385 177.483 382.845V384.298ZM187.831 385.585C187.098 385.516 186.973 385.433 186.863 385.294C186.752 385.156 186.738 384.907 186.738 384.27V382.001C186.738 380.853 186.71 380.327 186.378 379.829C186.088 379.386 185.645 379.179 185.105 379.179C184.538 379.179 183.68 379.483 182.49 380.313V379.165L182.366 379.082L180.719 380.023V380.203C181.134 380.452 181.397 380.632 181.467 380.811C181.577 381.088 181.591 381.351 181.591 381.849V384.423C181.591 384.865 181.536 385.156 181.467 385.294C181.384 385.447 181.245 385.543 180.526 385.585V386.014C180.941 386 181.453 385.986 182.034 385.986C182.587 385.986 183.196 386 183.597 386.014V385.585C182.85 385.53 182.726 385.46 182.629 385.322C182.532 385.184 182.49 384.99 182.49 384.395V381.794C182.49 381.13 182.518 380.881 182.753 380.632C183.072 380.3 183.86 379.995 184.455 379.995C185.105 379.995 185.479 380.217 185.659 380.687C185.853 381.24 185.866 382.527 185.866 383.316C185.866 384.464 185.839 385.114 185.673 385.308C185.562 385.433 185.368 385.53 184.76 385.585V386.014C185.271 386 185.866 385.986 186.295 385.986C186.918 385.986 187.388 386 187.831 386.014V385.585ZM190.924 376.633C190.924 376.19 190.605 375.886 190.204 375.886C189.817 375.886 189.471 376.176 189.471 376.633C189.471 377.062 189.803 377.366 190.204 377.366C190.619 377.366 190.924 377.062 190.924 376.633ZM190.758 379.082L189.07 380.023V380.203C189.485 380.452 189.748 380.632 189.817 380.811C189.927 381.088 189.941 381.379 189.941 381.877V384.423C189.941 384.865 189.886 385.142 189.817 385.281C189.734 385.433 189.595 385.543 188.876 385.585V386.014C189.291 386 189.831 385.986 190.412 385.986C190.965 385.986 191.546 386 191.948 386.014V385.585C191.2 385.53 191.076 385.46 190.979 385.322C190.882 385.184 190.841 384.99 190.841 384.395V381.794C190.841 381.13 190.841 379.981 190.882 379.165L190.758 379.082ZM198.935 385.142C198.755 385.253 198.534 385.35 198.34 385.35C197.884 385.35 197.704 384.976 197.704 383.676C197.704 382.832 197.745 381.586 197.745 381.005C197.745 380.41 197.704 380.037 197.524 379.76C197.289 379.414 196.791 379.123 196.071 379.123C195.518 379.123 194.618 379.428 193.857 380.037C193.512 380.313 193.276 380.59 193.276 380.936C193.276 381.213 193.401 381.434 193.608 381.766L194.494 381.31C194.328 381.047 194.231 380.798 194.231 380.59C194.231 380.147 194.84 379.788 195.642 379.788C196.099 379.788 196.431 379.995 196.611 380.286C196.763 380.535 196.818 380.936 196.818 381.822C196.818 382.333 196.708 382.403 196.196 382.527C194.701 382.901 194.051 383.081 193.567 383.426C193.207 383.676 193.041 384.035 193.041 384.492C193.041 385.35 193.83 386.166 194.937 386.166C195.642 386.166 196.237 385.779 196.846 385.281C197.137 385.917 197.469 386.125 197.815 386.125C198.174 386.125 198.548 385.945 199.143 385.405L198.935 385.142ZM196.818 384.298C196.818 384.699 196.791 384.838 196.528 385.045C196.279 385.253 195.767 385.433 195.227 385.433C194.563 385.433 194.065 384.976 194.065 384.423C194.065 383.689 194.452 383.385 196.818 382.845V384.298ZM127.437 398.023C126.69 397.22 126.441 396.805 126.441 396.155C126.441 395.352 126.98 394.91 127.672 394.91C128.53 394.91 128.89 395.532 128.89 396.155C128.89 396.916 128.544 397.442 127.437 398.023ZM126.814 398.881C127.603 399.725 128.779 401.011 129.817 402.201C129.263 402.782 128.447 403.391 127.313 403.391C125.915 403.391 124.96 402.52 124.96 401.343C124.96 400.015 125.721 399.476 126.814 398.881ZM130.882 401.814C131.491 401.025 131.975 400.14 132.487 399.061C132.695 398.632 132.819 398.383 132.93 398.217C133.068 398.023 133.276 397.898 133.954 397.843V397.4C133.58 397.414 133.041 397.442 132.487 397.442C131.906 397.442 131.214 397.414 130.799 397.4V397.843C131.726 397.884 131.865 398.134 131.865 398.355C131.865 398.549 131.837 398.715 131.726 399.047C131.477 399.766 131.021 400.666 130.509 401.357C130.024 400.832 128.516 399.171 127.811 398.383C128.627 397.954 129.734 397.331 129.734 396.127C129.734 395.02 128.973 394.342 127.728 394.342C126.275 394.342 125.459 395.352 125.459 396.404C125.459 397.373 126.109 398.106 126.455 398.479C125.016 399.185 123.895 399.835 123.895 401.482C123.895 403.433 125.708 404.221 126.856 404.221C128.641 404.221 129.568 403.294 130.19 402.658C131.09 403.765 131.782 404.291 132.501 404.291C133.221 404.291 133.774 403.945 134.314 403.433L134.078 403.142C133.76 403.35 133.497 403.474 133.11 403.474C132.473 403.474 132.086 403.211 130.882 401.814ZM138.833 398.134C138.778 400.292 138.764 401.454 138.764 402.354C138.764 403.018 138.833 403.308 138.985 403.599C139.179 403.931 139.58 404.152 140.092 404.152C140.742 404.152 141.254 403.917 141.836 403.35L141.6 403.059C141.227 403.308 140.895 403.474 140.549 403.474C140.231 403.474 139.981 403.336 139.857 403.101C139.746 402.907 139.691 402.589 139.691 402.104C139.691 401.772 139.691 400.347 139.719 398.134H141.531V397.525H139.746C139.802 395.851 139.802 395.837 139.802 395.837H139.442C139.054 396.944 138.847 397.442 137.92 397.801V398.134H138.833ZM148 399.891C148 397.981 146.934 397.137 145.468 397.137C143.766 397.137 142.41 398.673 142.41 400.79C142.41 403.018 143.738 404.235 145.412 404.235C146.201 404.235 147.28 403.792 148.097 402.935L147.806 402.603C147.1 403.114 146.464 403.336 145.883 403.336C144.527 403.336 143.323 402.492 143.323 400.333C143.323 400.237 143.337 400.043 143.365 399.905L148 399.891ZM143.434 399.42C143.572 398.493 144.319 397.663 145.357 397.663C146.381 397.663 146.907 398.3 146.907 398.978C146.907 399.268 146.768 399.31 146.505 399.337C146.049 399.393 145.025 399.42 143.434 399.42ZM154.397 397.815C153.843 397.303 153.193 397.137 152.654 397.137C151.035 397.137 149.125 398.424 149.125 401.025C149.125 403.004 150.495 404.235 152.086 404.235C152.999 404.235 153.76 403.806 154.618 402.948L154.314 402.616C153.65 403.101 153.096 403.336 152.363 403.336C151.173 403.336 150.039 402.409 150.039 400.499C150.039 398.839 150.952 397.94 151.976 397.94C152.612 397.94 153.096 398.106 153.664 398.645L154.397 397.815ZM156.98 396.196C156.98 395.574 157.008 394.066 157.063 393.07L156.939 392.987L155.223 393.997V394.204C155.638 394.467 155.804 394.578 155.901 394.688C156.053 394.854 156.081 395.131 156.081 395.643V402.423C156.081 402.865 156.026 403.156 155.956 403.294C155.873 403.447 155.735 403.543 155.016 403.585V404.014C155.431 404 155.943 403.986 156.524 403.986C157.077 403.986 157.686 404 158.087 404.014V403.585C157.34 403.53 157.215 403.46 157.119 403.322C157.022 403.184 156.98 402.99 156.98 402.395V399.794C156.98 399.13 157.008 398.881 157.243 398.632C157.561 398.3 158.35 397.995 158.945 397.995C159.595 397.995 159.969 398.217 160.149 398.687C160.342 399.24 160.356 400.513 160.356 401.302C160.356 402.45 160.329 403.114 160.163 403.308C160.052 403.433 159.858 403.53 159.249 403.585V404.014C159.761 404 160.356 403.986 160.785 403.986C161.408 403.986 161.878 404 162.321 404.014V403.585C161.588 403.516 161.463 403.433 161.352 403.294C161.242 403.156 161.228 402.907 161.228 402.27V400.001C161.228 398.853 161.2 398.327 160.868 397.829C160.578 397.386 160.135 397.179 159.595 397.179C159.028 397.179 158.17 397.483 156.98 398.313V396.196ZM170.671 403.585C169.938 403.516 169.813 403.433 169.703 403.294C169.592 403.156 169.578 402.907 169.578 402.27V400.001C169.578 398.853 169.55 398.327 169.218 397.829C168.928 397.386 168.485 397.179 167.945 397.179C167.378 397.179 166.52 397.483 165.33 398.313V397.165L165.206 397.082L163.559 398.023V398.203C163.975 398.452 164.237 398.632 164.307 398.811C164.417 399.088 164.431 399.351 164.431 399.849V402.423C164.431 402.865 164.376 403.156 164.307 403.294C164.224 403.447 164.085 403.543 163.366 403.585V404.014C163.781 404 164.293 403.986 164.874 403.986C165.427 403.986 166.036 404 166.437 404.014V403.585C165.69 403.53 165.566 403.46 165.469 403.322C165.372 403.184 165.33 402.99 165.33 402.395V399.794C165.33 399.13 165.358 398.881 165.593 398.632C165.912 398.3 166.7 397.995 167.295 397.995C167.945 397.995 168.319 398.217 168.499 398.687C168.693 399.24 168.706 400.527 168.706 401.316C168.706 402.464 168.679 403.114 168.513 403.308C168.402 403.433 168.208 403.53 167.6 403.585V404.014C168.112 404 168.706 403.986 169.135 403.986C169.758 403.986 170.228 404 170.671 404.014V403.585ZM175.175 403.682C173.556 403.682 172.795 402.091 172.795 400.458C172.795 398.811 173.653 397.691 175.078 397.691C176.406 397.691 177.403 398.991 177.403 400.928C177.403 402.603 176.586 403.682 175.175 403.682ZM171.758 400.832C171.758 402.686 173.1 404.235 175.037 404.235C176.96 404.235 178.44 402.727 178.44 400.555C178.44 398.632 177.098 397.137 175.258 397.137C173.473 397.137 171.758 398.452 171.758 400.832ZM180.767 402.423C180.767 402.865 180.711 403.156 180.642 403.294C180.559 403.447 180.421 403.543 179.701 403.585V404.014C180.117 404 180.642 403.986 181.223 403.986C181.777 403.986 182.386 404 182.787 404.014V403.585C182.04 403.543 181.915 403.46 181.818 403.322C181.722 403.184 181.68 402.99 181.68 402.395V396.196C181.68 395.574 181.708 394.066 181.763 393.07L181.639 392.987L179.909 393.997V394.204C180.324 394.467 180.49 394.564 180.587 394.675C180.725 394.854 180.767 395.034 180.767 395.602V402.423ZM187.309 403.682C185.69 403.682 184.929 402.091 184.929 400.458C184.929 398.811 185.787 397.691 187.212 397.691C188.54 397.691 189.536 398.991 189.536 400.928C189.536 402.603 188.72 403.682 187.309 403.682ZM183.891 400.832C183.891 402.686 185.233 404.235 187.17 404.235C189.093 404.235 190.574 402.727 190.574 400.555C190.574 398.632 189.232 397.137 187.392 397.137C185.607 397.137 183.891 398.452 183.891 400.832ZM198.144 397.663H196.304C195.861 397.303 195.377 397.137 194.768 397.137C193.288 397.137 192.167 398.217 192.167 399.476C192.167 400.347 192.554 401.039 193.357 401.496L192.25 402.63C192.25 403.101 192.651 403.613 193.274 403.848C191.973 404.802 191.724 405.245 191.724 405.688C191.724 406.643 192.79 407.542 194.436 407.542C196.429 407.542 198.075 406.311 198.075 404.664C198.075 404.042 197.798 403.64 197.314 403.419C196.83 403.198 196.29 403.17 194.824 403.17C194.159 403.17 193.744 403.114 193.509 402.907C193.357 402.769 193.246 402.575 193.246 402.409C193.246 402.229 193.426 401.925 193.689 401.772C193.772 401.731 193.841 401.703 193.98 401.703C194.118 401.703 194.353 401.731 194.616 401.731C196.069 401.731 197.093 400.762 197.093 399.406C197.093 399.005 197.024 398.549 196.816 398.272H198.144V397.663ZM197.203 405.287C197.203 406.158 196.18 406.892 194.837 406.892C193.551 406.892 192.748 406.269 192.748 405.48C192.748 405.01 192.983 404.512 193.551 404.138C193.744 404.014 193.869 403.986 194.409 403.986C196.705 403.986 197.203 404.415 197.203 405.287ZM193.177 399.323C193.177 398.217 193.8 397.635 194.644 397.635C195.515 397.635 196.11 398.286 196.11 399.614C196.11 400.61 195.598 401.233 194.727 401.233C193.827 401.233 193.177 400.569 193.177 399.323ZM202.582 403.599C203.163 402.146 204.048 399.683 204.45 398.618C204.685 397.995 205.017 397.857 205.543 397.801V397.373C205.058 397.4 204.657 397.4 204.201 397.4C203.73 397.4 203.232 397.386 202.789 397.373V397.801C203.633 397.829 203.758 397.981 203.758 398.23C203.758 398.383 203.716 398.645 203.619 398.991C203.204 400.403 202.651 401.8 202.263 402.838C201.821 401.8 201.198 400.292 200.7 399.019C200.589 398.728 200.451 398.369 200.451 398.217C200.451 397.94 200.603 397.829 201.392 397.801V397.373C201.046 397.386 200.575 397.4 200.008 397.4C199.565 397.4 198.804 397.4 198.445 397.373V397.801C199.164 397.829 199.261 398.064 199.69 399.074L201.765 403.945C201.295 405.162 200.479 406.186 199.344 406.753L199.939 407.556C201.24 406.615 201.959 405.148 202.582 403.599Z" fill="white"/>
<path opacity="0.3" d="M163.92 326.84C253.898 326.84 326.84 253.898 326.84 163.92C326.84 73.9418 253.898 1 163.92 1C73.9418 1 1 73.9418 1 163.92C1 253.898 73.9418 326.84 163.92 326.84Z" stroke="white" stroke-width="0.5" stroke-miterlimit="10"/>
<path opacity="0.3" d="M163.92 511C253.898 511 326.84 438.058 326.84 348.08C326.84 258.102 253.898 185.16 163.92 185.16C73.9418 185.16 1 258.102 1 348.08C1 438.058 73.9418 511 163.92 511Z" stroke="white" stroke-width="0.5" stroke-miterlimit="10"/>
<path d="M164.23 24.29C165.903 24.29 167.26 22.9334 167.26 21.26C167.26 19.5866 165.903 18.23 164.23 18.23C162.557 18.23 161.2 19.5866 161.2 21.26C161.2 22.9334 162.557 24.29 164.23 24.29Z" fill="#11CA83"/>
<path opacity="0.3" d="M164 21L164 86" stroke="url(#paint0_linear_0_1)"/>
<path d="M164.23 492.95C165.903 492.95 167.26 491.594 167.26 489.92C167.26 488.247 165.903 486.89 164.23 486.89C162.557 486.89 161.2 488.247 161.2 489.92C161.2 491.594 162.557 492.95 164.23 492.95Z" fill="#11CA83"/>
<circle cx="164.296" cy="490.296" r="7.25521" transform="rotate(-19.9605 164.296 490.296)" fill="url(#paint1_radial_0_1)"/>
<path opacity="0.3" d="M164 414L164 490" stroke="url(#paint2_linear_0_1)"/>
<circle cx="164.296" cy="21.4423" r="7.25521" transform="rotate(-19.9605 164.296 21.4423)" fill="url(#paint3_radial_0_1)"/>
<defs>
<linearGradient id="paint0_linear_0_1" x1="164.5" y1="21" x2="164.5" y2="86" gradientUnits="userSpaceOnUse">
<stop stop-color="#11CA83"/>
<stop offset="1" stop-color="#11CA83" stop-opacity="0"/>
</linearGradient>
<radialGradient id="paint1_radial_0_1" cx="0" cy="0" r="1" gradientUnits="userSpaceOnUse" gradientTransform="translate(164.296 490.296) rotate(90) scale(7.25521)">
<stop stop-color="#11CA83"/>
<stop offset="1" stop-color="#11CA83" stop-opacity="0"/>
</radialGradient>
<linearGradient id="paint2_linear_0_1" x1="164.5" y1="414" x2="164.5" y2="490" gradientUnits="userSpaceOnUse">
<stop stop-color="#11CA83" stop-opacity="0"/>
<stop offset="1" stop-color="#11CA83"/>
</linearGradient>
<radialGradient id="paint3_radial_0_1" cx="0" cy="0" r="1" gradientUnits="userSpaceOnUse" gradientTransform="translate(164.296 21.4423) rotate(90) scale(7.25521)">
<stop stop-color="#11CA83"/>
<stop offset="1" stop-color="#11CA83" stop-opacity="0"/>
</radialGradient>
</defs>
</svg>
