<svg width="328" height="512" viewBox="0 0 328 512" fill="none" xmlns="http://www.w3.org/2000/svg">
<g clip-path="url(#clip0_2549_100)">
<mask id="mask0_2549_100" style="mask-type:luminance" maskUnits="userSpaceOnUse" x="0" y="0" width="328" height="512">
<path d="M328 0H0V512H328V0Z" fill="white"/>
</mask>
<g mask="url(#mask0_2549_100)">
<path opacity="0.2" fill-rule="evenodd" clip-rule="evenodd" d="M29.1411 255.664C42.565 236.957 60.1462 220.696 81.465 208.387C156.796 164.895 251.542 186.498 298.795 255.956C285.354 274.961 267.63 291.477 246.064 303.929C170.758 347.407 75.957 325.523 29.1411 255.664Z" fill="#11CA83"/>
<path opacity="0.3" d="M163.92 326.84C253.898 326.84 326.84 253.898 326.84 163.92C326.84 73.9418 253.898 1 163.92 1C73.9418 1 1 73.9418 1 163.92C1 253.898 73.9418 326.84 163.92 326.84Z" stroke="white" stroke-width="0.5" stroke-miterlimit="10"/>
<path opacity="0.3" d="M163.92 511C253.898 511 326.84 438.058 326.84 348.08C326.84 258.102 253.898 185.16 163.92 185.16C73.9418 185.16 1 258.102 1 348.08C1 438.058 73.9418 511 163.92 511Z" stroke="white" stroke-width="0.5" stroke-miterlimit="10"/>
<path d="M164.23 24.29C165.903 24.29 167.26 22.9334 167.26 21.26C167.26 19.5866 165.903 18.23 164.23 18.23C162.557 18.23 161.2 19.5866 161.2 21.26C161.2 22.9334 162.557 24.29 164.23 24.29Z" fill="#11CA83"/>
<path opacity="0.3" d="M164 21V86" stroke="url(#paint0_linear_2549_100)"/>
<path d="M164.23 492.95C165.903 492.95 167.26 491.594 167.26 489.92C167.26 488.247 165.903 486.89 164.23 486.89C162.557 486.89 161.2 488.247 161.2 489.92C161.2 491.594 162.557 492.95 164.23 492.95Z" fill="#11CA83"/>
<path d="M166.773 497.115C170.539 495.748 172.483 491.586 171.115 487.819C169.748 484.053 165.586 482.109 161.819 483.477C158.053 484.844 156.109 489.006 157.477 492.773C158.845 496.539 163.007 498.483 166.773 497.115Z" fill="url(#paint1_radial_2549_100)"/>
<path opacity="0.3" d="M164 414V490" stroke="url(#paint2_linear_2549_100)"/>
<path d="M166.773 28.2617C170.539 26.8938 172.483 22.7318 171.115 18.9656C169.748 15.1994 165.586 13.2551 161.819 14.6229C158.053 15.9908 156.109 20.1528 157.477 23.919C158.845 27.6853 163.007 29.6296 166.773 28.2617Z" fill="url(#paint3_radial_2549_100)"/>
<path d="M111.97 246.876C111.34 246.876 110.636 246.906 110.186 246.921V246.441C110.965 246.396 111.25 246.261 111.34 246.097C111.415 245.947 111.475 245.632 111.475 245.152V238.077C111.475 237.598 111.415 237.283 111.34 237.133C111.25 236.968 110.965 236.833 110.186 236.788V236.309C110.636 236.324 111.34 236.339 111.97 236.339C112.344 236.339 113.798 236.309 114.383 236.309C118.46 236.309 120.289 238.347 120.289 241.435C120.289 245.287 117.665 246.906 114.023 246.906C113.394 246.906 112.419 246.876 111.97 246.876ZM112.599 236.953V244.763C112.599 245.092 112.614 245.587 112.719 245.797C112.884 246.127 113.528 246.261 114.533 246.261C117.081 246.261 118.999 244.778 118.999 241.615C118.999 238.932 117.935 236.923 113.978 236.923C113.618 236.923 113.004 236.923 112.599 236.953ZM131.14 246.441V246.921C130.27 246.891 129.626 246.876 129.146 246.876C128.666 246.876 128.142 246.891 127.302 246.921V246.441C128.471 246.396 128.591 246.276 128.591 245.917C128.591 245.722 128.441 245.197 128.322 244.852L127.632 242.784H124.08L123.33 244.867C123.18 245.257 123.06 245.722 123.06 245.902C123.06 246.201 123.165 246.351 124.334 246.441V246.921C123.6 246.891 123 246.876 122.626 246.876C122.251 246.876 121.562 246.891 120.782 246.921V246.441C121.577 246.336 121.951 246.231 122.356 245.182L124.604 239.366C125.054 238.182 125.324 237.448 125.654 236.414L126.553 236.129C126.853 237.133 127.197 238.092 127.542 239.097L129.596 245.062C129.955 246.127 130.195 246.366 131.14 246.441ZM125.923 237.733L124.305 242.169H127.422L125.923 237.733ZM134.712 240.551L136.016 241.405C137.35 242.259 137.95 243.054 137.95 244.133C137.95 245.902 136.675 247.131 134.652 247.131C133.648 247.131 132.568 246.861 132.164 246.531C132.014 245.917 131.864 245.047 131.789 244.343L132.329 244.283C132.673 245.617 133.243 246.486 134.742 246.486C136.061 246.486 136.885 245.812 136.885 244.703C136.885 243.698 136.436 243.174 135.491 242.574L134.112 241.69C133.048 241.015 132.314 240.131 132.314 238.917C132.314 237.313 133.588 236.144 135.596 236.144C136.436 236.144 137.08 236.309 137.545 236.489C137.59 236.968 137.695 237.943 137.8 238.542L137.275 238.587C136.975 237.343 136.496 236.773 135.282 236.773C134.007 236.773 133.303 237.538 133.303 238.527C133.303 239.277 133.783 239.951 134.712 240.551ZM147.851 241.24C149.455 241.435 150.609 242.289 150.609 243.773C150.609 245.932 148.84 246.921 146.442 246.921C145.798 246.921 145.078 246.891 144.569 246.891C143.894 246.891 143.145 246.906 142.755 246.921V246.441C143.324 246.396 143.744 246.366 143.909 246.097C144.014 245.917 144.044 245.647 144.044 245.077V238.107C144.044 237.628 144.014 237.313 143.909 237.133C143.744 236.863 143.384 236.818 142.77 236.788V236.309C143.384 236.324 143.999 236.339 144.524 236.339C145.303 236.339 145.918 236.324 146.412 236.324C148.945 236.324 150.039 237.133 150.039 238.692C150.039 239.861 149.26 240.82 147.851 241.24ZM145.168 236.908V241.075C145.273 241.09 145.543 241.09 145.648 241.09C147.941 241.09 148.81 240.326 148.81 238.887C148.81 237.433 147.821 236.863 146.307 236.863C145.873 236.863 145.558 236.878 145.168 236.908ZM145.168 241.645V244.628C145.168 245.257 145.198 245.662 145.288 245.842C145.438 246.142 146.052 246.306 146.922 246.306C148.601 246.306 149.32 245.587 149.32 244.163C149.32 242.02 147.866 241.63 146.067 241.63C145.813 241.63 145.513 241.63 145.168 241.645ZM154.431 246.876C153.801 246.876 152.587 246.906 152.138 246.921V246.441C152.917 246.396 153.202 246.261 153.292 246.097C153.367 245.947 153.427 245.632 153.427 245.152V238.077C153.427 237.598 153.367 237.283 153.292 237.133C153.202 236.968 152.917 236.833 152.138 236.788V236.309C152.587 236.324 153.741 236.354 154.371 236.354C155.99 236.354 157.788 236.339 159.048 236.309C159.108 237.298 159.167 238.062 159.227 238.497L158.718 238.557C158.553 237.838 158.343 237.433 158.058 237.193C157.758 236.953 157.489 236.863 156.439 236.863C155.81 236.863 154.986 236.863 154.551 236.893V241.09C155.495 241.09 156.35 241.06 156.634 240.955C156.889 240.865 157.114 240.641 157.279 239.696H157.773C157.758 240.011 157.699 240.865 157.699 241.51C157.699 242.184 157.714 242.769 157.729 243.069H157.234C157.114 242.169 156.904 241.945 156.649 241.825C156.365 241.69 155.54 241.645 154.551 241.645V245.047C154.551 245.317 154.566 245.662 154.671 245.842C154.881 246.216 155.78 246.336 156.814 246.336C157.878 246.336 158.418 246.127 158.778 245.632C159.003 245.317 159.242 244.837 159.422 244.388L159.902 244.508C159.692 245.407 159.467 246.171 159.227 246.921C157.998 246.906 155.9 246.876 154.431 246.876ZM163.929 240.551L165.233 241.405C166.567 242.259 167.166 243.054 167.166 244.133C167.166 245.902 165.892 247.131 163.869 247.131C162.865 247.131 161.785 246.861 161.381 246.531C161.231 245.917 161.081 245.047 161.006 244.343L161.546 244.283C161.89 245.617 162.46 246.486 163.959 246.486C165.278 246.486 166.102 245.812 166.102 244.703C166.102 243.698 165.653 243.174 164.708 242.574L163.329 241.69C162.265 241.015 161.531 240.131 161.531 238.917C161.531 237.313 162.805 236.144 164.813 236.144C165.653 236.144 166.297 236.309 166.762 236.489C166.807 236.968 166.912 237.943 167.017 238.542L166.492 238.587C166.192 237.343 165.713 236.773 164.498 236.773C163.224 236.773 162.52 237.538 162.52 238.527C162.52 239.277 163 239.951 163.929 240.551ZM173.387 236.983V245.122C173.387 245.782 173.447 245.977 173.552 246.127C173.687 246.321 174.121 246.381 174.931 246.441V246.921C174.511 246.906 173.387 246.876 172.787 246.876C172.158 246.876 171.243 246.891 170.764 246.921V246.441C171.648 246.396 171.978 246.291 172.113 246.112C172.203 245.977 172.263 245.677 172.263 245.152V236.998C171.993 236.968 171.678 236.968 171.348 236.968C170.344 236.968 169.64 236.968 169.28 237.283C168.98 237.553 168.785 237.913 168.56 238.677L168.081 238.602C168.216 237.793 168.336 236.818 168.396 235.919H168.86C168.905 236.054 168.95 236.129 169.04 236.189C169.175 236.294 169.595 236.354 172.847 236.354C176.31 236.354 176.49 236.324 176.684 236.264C176.849 236.219 177.029 236.054 177.104 235.904L177.569 235.949C177.509 236.429 177.404 237.748 177.359 238.647H176.864C176.804 237.793 176.669 237.313 176.115 237.103C175.74 236.968 175.096 236.953 174.166 236.953C173.912 236.953 173.627 236.968 173.387 236.983ZM180.75 246.876C180.12 246.876 178.906 246.906 178.456 246.921V246.441C179.236 246.396 179.52 246.261 179.61 246.097C179.685 245.947 179.745 245.632 179.745 245.152V238.077C179.745 237.598 179.685 237.283 179.61 237.133C179.52 236.968 179.236 236.833 178.456 236.788V236.309C178.906 236.324 180.06 236.354 180.69 236.354C182.308 236.354 184.107 236.339 185.366 236.309C185.426 237.298 185.486 238.062 185.546 238.497L185.036 238.557C184.872 237.838 184.662 237.433 184.377 237.193C184.077 236.953 183.807 236.863 182.758 236.863C182.129 236.863 181.304 236.863 180.869 236.893V241.09C181.814 241.09 182.668 241.06 182.953 240.955C183.208 240.865 183.433 240.641 183.597 239.696H184.092C184.077 240.011 184.017 240.865 184.017 241.51C184.017 242.184 184.032 242.769 184.047 243.069H183.553C183.433 242.169 183.223 241.945 182.968 241.825C182.683 241.69 181.859 241.645 180.869 241.645V245.047C180.869 245.317 180.884 245.662 180.989 245.842C181.199 246.216 182.099 246.336 183.133 246.336C184.197 246.336 184.737 246.127 185.096 245.632C185.321 245.317 185.561 244.837 185.741 244.388L186.221 244.508C186.011 245.407 185.786 246.171 185.546 246.921C184.317 246.906 182.218 246.876 180.75 246.876ZM200.478 246.441V246.921C199.609 246.891 198.965 246.876 198.485 246.876C198.005 246.876 197.481 246.891 196.641 246.921V246.441C197.81 246.396 197.93 246.276 197.93 245.917C197.93 245.722 197.78 245.197 197.66 244.852L196.971 242.784H193.419L192.669 244.867C192.519 245.257 192.399 245.722 192.399 245.902C192.399 246.201 192.504 246.351 193.673 246.441V246.921C192.939 246.891 192.339 246.876 191.965 246.876C191.59 246.876 190.9 246.891 190.121 246.921V246.441C190.915 246.336 191.29 246.231 191.695 245.182L193.943 239.366C194.393 238.182 194.663 237.448 194.992 236.414L195.892 236.129C196.192 237.133 196.536 238.092 196.881 239.097L198.935 245.062C199.294 246.127 199.534 246.366 200.478 246.441ZM195.262 237.733L193.643 242.169H196.761L195.262 237.733ZM209.951 238.602C209.951 239.247 209.966 242.064 209.966 242.979C209.966 245.602 208.752 247.131 205.814 247.131C204.285 247.131 202.951 246.561 202.247 245.557C201.857 245.002 201.677 244.178 201.677 243.099V238.077C201.677 237.598 201.617 237.283 201.542 237.133C201.452 236.968 201.167 236.833 200.388 236.788V236.309C200.838 236.324 201.572 236.354 202.202 236.354C202.801 236.354 203.716 236.324 204.135 236.309V236.788C203.326 236.848 203.056 236.953 202.951 237.103C202.846 237.253 202.801 237.463 202.801 238.107C202.786 239.351 202.786 241.24 202.786 242.514C202.786 243.503 202.906 244.418 203.221 244.957C203.761 245.857 204.75 246.291 206.009 246.291C209.082 246.291 209.276 244.448 209.276 242.035C209.276 241.03 209.261 239.097 209.217 238.542C209.097 237.028 208.842 236.848 207.658 236.788V236.309C208.197 236.324 208.842 236.339 209.591 236.339C210.311 236.339 210.79 236.324 211.36 236.309V236.788C210.251 236.848 209.951 237.028 209.951 238.602ZM215.19 240.551L216.494 241.405C217.828 242.259 218.428 243.054 218.428 244.133C218.428 245.902 217.154 247.131 215.13 247.131C214.126 247.131 213.047 246.861 212.642 246.531C212.492 245.917 212.342 245.047 212.267 244.343L212.807 244.283C213.152 245.617 213.721 246.486 215.22 246.486C216.539 246.486 217.364 245.812 217.364 244.703C217.364 243.698 216.914 243.174 215.97 242.574L214.591 241.69C213.526 241.015 212.792 240.131 212.792 238.917C212.792 237.313 214.066 236.144 216.074 236.144C216.914 236.144 217.558 236.309 218.023 236.489C218.068 236.968 218.173 237.943 218.278 238.542L217.753 238.587C217.453 237.343 216.974 236.773 215.76 236.773C214.486 236.773 213.781 237.538 213.781 238.527C213.781 239.277 214.261 239.951 215.19 240.551ZM128.986 258.232L128.432 258.007C129.151 256.568 130.425 255.728 131.714 255.728C133.378 255.728 134.308 256.718 134.308 258.277C134.308 260.78 131.699 263.148 129.856 264.827C130.71 264.827 133.483 264.812 134.817 264.752L134.547 265.921C133.363 265.906 132.374 265.891 131.16 265.891C130.53 265.891 129.721 265.891 128.042 265.921L127.982 265.651C128.507 265.246 129.286 264.557 129.586 264.272C132.149 261.814 133.093 260.195 133.093 258.441C133.093 257.437 132.674 256.568 131.43 256.568C130.455 256.568 129.631 257.122 128.986 258.232ZM148.648 264.422C149.173 263.103 150.596 259.521 151.421 257.302C151.661 256.673 151.676 256.403 151.676 256.298C151.676 256.013 151.571 255.848 150.611 255.788V255.309C151.016 255.339 151.661 255.354 152.26 255.354C152.74 255.354 153.444 255.324 153.714 255.309V255.788C153.399 255.803 153.175 255.863 153.025 255.953C152.845 256.058 152.74 256.223 152.635 256.463C151.286 259.626 150.012 262.758 148.678 266.071H148.138C147.719 264.932 147.344 264.002 146.37 261.649C145.71 263.133 145.096 264.512 144.481 266.071H143.911C142.562 262.728 141.363 259.955 139.939 256.718C139.834 256.463 139.655 256.163 139.52 256.028C139.37 255.863 139.085 255.788 138.665 255.788V255.309C139.04 255.324 139.924 255.354 140.344 255.354C141.153 255.354 141.813 255.339 142.278 255.309V255.788C141.273 255.833 141.168 256.058 141.168 256.298C141.168 256.463 141.258 256.808 141.408 257.182C141.813 258.187 143.192 261.484 144.466 264.407C144.856 263.553 145.44 262.219 146.025 260.84C145.485 259.536 144.901 258.142 144.286 256.718C144.181 256.463 144.001 256.163 143.866 256.028C143.717 255.863 143.432 255.788 142.922 255.788V255.309C143.342 255.324 144.121 255.354 144.541 255.354C145.245 255.354 146.19 255.309 146.385 255.309V255.788C145.74 255.803 145.44 255.878 145.44 256.298C145.44 256.448 145.53 256.808 145.68 257.182C145.845 257.632 146.205 258.591 146.654 259.685L147.674 257.317C147.928 256.718 147.943 256.433 147.943 256.298C147.943 255.968 147.629 255.788 146.984 255.788V255.309C147.359 255.339 147.883 255.354 148.483 255.354C148.963 255.354 149.757 255.324 149.982 255.309V255.788C149.667 255.803 149.427 255.848 149.262 255.968C148.948 256.208 148.738 256.673 148.558 257.062C148.183 257.842 147.629 258.996 146.969 260.42C147.509 261.754 148.093 263.103 148.648 264.422ZM156.766 265.876C156.136 265.876 154.922 265.906 154.472 265.921V265.441C155.252 265.396 155.537 265.261 155.626 265.097C155.701 264.947 155.761 264.632 155.761 264.152V257.077C155.761 256.598 155.701 256.283 155.626 256.133C155.537 255.968 155.252 255.833 154.472 255.788V255.309C154.922 255.324 156.076 255.354 156.706 255.354C158.325 255.354 160.123 255.339 161.382 255.309C161.442 256.298 161.502 257.062 161.562 257.497L161.053 257.557C160.888 256.838 160.678 256.433 160.393 256.193C160.093 255.953 159.823 255.863 158.774 255.863C158.145 255.863 157.32 255.863 156.886 255.893V260.09C157.83 260.09 158.684 260.06 158.969 259.955C159.224 259.865 159.449 259.641 159.614 258.696H160.108C160.093 259.011 160.033 259.865 160.033 260.51C160.033 261.184 160.048 261.769 160.063 262.069H159.569C159.449 261.169 159.239 260.945 158.984 260.825C158.699 260.69 157.875 260.645 156.886 260.645V264.047C156.886 264.317 156.901 264.662 157.005 264.842C157.215 265.216 158.115 265.336 159.149 265.336C160.213 265.336 160.753 265.127 161.112 264.632C161.337 264.317 161.577 263.837 161.757 263.388L162.237 263.508C162.027 264.407 161.802 265.171 161.562 265.921C160.333 265.906 158.235 265.876 156.766 265.876ZM165.844 257.107V264.047C165.844 264.317 165.859 264.662 165.964 264.842C166.174 265.216 166.893 265.336 168.167 265.336C169.231 265.336 169.831 265.127 170.191 264.632C170.415 264.317 170.685 263.748 170.865 263.298L171.36 263.418C171.15 264.347 170.895 265.171 170.655 265.921C169.426 265.906 167.673 265.876 166.204 265.876C165.574 265.876 163.88 265.906 163.431 265.921V265.441C164.21 265.396 164.495 265.261 164.585 265.097C164.66 264.947 164.72 264.632 164.72 264.152V257.077C164.72 256.598 164.66 256.283 164.585 256.133C164.495 255.968 164.21 255.833 163.431 255.788V255.309C163.88 255.324 164.615 255.354 165.244 255.354C165.844 255.354 166.743 255.324 167.163 255.309V255.788C166.353 255.848 166.099 255.953 165.994 256.103C165.889 256.253 165.844 256.463 165.844 257.107ZM175.707 255.983V264.122C175.707 264.782 175.767 264.977 175.872 265.127C176.007 265.321 176.441 265.381 177.251 265.441V265.921C176.831 265.906 175.707 265.876 175.107 265.876C174.478 265.876 173.564 265.891 173.084 265.921V265.441C173.968 265.396 174.298 265.291 174.433 265.112C174.523 264.977 174.583 264.677 174.583 264.152V255.998C174.313 255.968 173.998 255.968 173.668 255.968C172.664 255.968 171.96 255.968 171.6 256.283C171.3 256.553 171.105 256.913 170.881 257.677L170.401 257.602C170.536 256.793 170.656 255.818 170.716 254.919H171.18C171.225 255.054 171.27 255.129 171.36 255.189C171.495 255.294 171.915 255.354 175.167 255.354C178.63 255.354 178.81 255.324 179.005 255.264C179.169 255.219 179.349 255.054 179.424 254.904L179.889 254.949C179.829 255.429 179.724 256.748 179.679 257.647H179.184C179.124 256.793 178.99 256.313 178.435 256.103C178.06 255.968 177.416 255.953 176.486 255.953C176.232 255.953 175.947 255.968 175.707 255.983ZM183.07 265.876C182.44 265.876 181.226 265.906 180.776 265.921V265.441C181.556 265.396 181.841 265.261 181.93 265.097C182.005 264.947 182.065 264.632 182.065 264.152V257.077C182.065 256.598 182.005 256.283 181.93 256.133C181.841 255.968 181.556 255.833 180.776 255.788V255.309C181.226 255.324 182.38 255.354 183.01 255.354C184.628 255.354 186.427 255.339 187.686 255.309C187.746 256.298 187.806 257.062 187.866 257.497L187.356 257.557C187.192 256.838 186.982 256.433 186.697 256.193C186.397 255.953 186.127 255.863 185.078 255.863C184.449 255.863 183.624 255.863 183.19 255.893V260.09C184.134 260.09 184.988 260.06 185.273 259.955C185.528 259.865 185.753 259.641 185.918 258.696H186.412C186.397 259.011 186.337 259.865 186.337 260.51C186.337 261.184 186.352 261.769 186.367 262.069H185.873C185.753 261.169 185.543 260.945 185.288 260.825C185.003 260.69 184.179 260.645 183.19 260.645V264.047C183.19 264.317 183.205 264.662 183.309 264.842C183.519 265.216 184.419 265.336 185.453 265.336C186.517 265.336 187.057 265.127 187.416 264.632C187.641 264.317 187.881 263.837 188.061 263.388L188.541 263.508C188.331 264.407 188.106 265.171 187.866 265.921C186.637 265.906 184.539 265.876 183.07 265.876ZM191.728 263.493C191.743 265.216 192.013 265.381 193.332 265.441V265.921C192.732 265.906 191.983 265.891 191.383 265.891C190.784 265.891 189.72 265.906 189.525 265.921V265.441C190.709 265.366 190.979 265.186 190.994 263.343C191.024 260.06 191.054 258.336 191.054 257.617C191.054 256.838 190.964 256.613 190.754 256.343C190.439 255.923 190.139 255.848 189.3 255.788V255.309C189.6 255.324 190.259 255.339 190.619 255.339C191.024 255.339 191.428 255.324 191.698 255.309C192.478 256.568 193.197 257.317 194.441 258.801C195.85 260.48 196.854 261.664 198.578 263.643C198.593 262.833 198.593 262.024 198.593 261.214C198.593 259.895 198.578 258.636 198.548 257.542C198.503 255.968 198.233 255.848 196.989 255.788V255.309C197.529 255.324 198.158 255.339 198.908 255.339C199.627 255.339 200.092 255.324 200.662 255.309V255.788C199.552 255.848 199.328 255.968 199.268 257.542C199.253 258.127 199.253 259.161 199.253 260.48C199.253 262.593 199.268 264.377 199.358 265.996L198.863 266.086C198.473 265.501 198.054 264.932 197.619 264.392C195.76 262.144 193.632 259.596 191.743 257.392C191.713 258.426 191.713 259.416 191.713 260.42C191.713 261.424 191.713 262.458 191.728 263.493Z" fill="white"/>
<path d="M124.97 116.785V124.367C124.97 124.81 125.039 125.114 125.136 125.252C125.233 125.377 125.468 125.515 126.285 125.584V126.027C125.897 126.013 124.942 125.986 124.389 125.986C123.808 125.986 123.158 126.013 122.743 126.027V125.584C123.462 125.543 123.725 125.418 123.808 125.266C123.877 125.128 123.932 124.837 123.932 124.395V117.892C123.932 117.449 123.891 117.158 123.78 116.978C123.614 116.716 123.296 116.702 122.743 116.674V116.231C123.019 116.245 123.753 116.259 124.361 116.259C124.749 116.259 125.69 116.245 126.008 116.245C128.083 116.245 129.661 116.882 129.661 118.874C129.661 120.811 128.014 121.71 126.202 121.71C125.966 121.71 125.662 121.696 125.441 121.669L125.51 121.157C125.648 121.185 125.856 121.198 125.98 121.198C127.336 121.198 128.498 120.825 128.498 118.971C128.498 117.629 127.613 116.757 125.759 116.757C125.565 116.757 125.122 116.771 124.97 116.785ZM133.881 125.598V126.027C133.535 126.013 132.926 126 132.276 126C131.695 126 131.169 126.013 130.713 126.027V125.598C131.211 125.557 131.404 125.543 131.57 125.405C131.723 125.28 131.778 124.962 131.778 124.395V121.849C131.778 121.268 131.75 121.06 131.653 120.825C131.557 120.631 131.307 120.451 130.906 120.216V120.036L132.553 119.095L132.691 119.192V120.548C133.397 119.538 133.936 119.192 134.448 119.192C134.766 119.192 135.154 119.386 135.458 119.663L134.78 120.59C134.448 120.327 134.158 120.175 133.867 120.175C133.59 120.175 133.286 120.368 133.037 120.673C132.733 121.032 132.677 121.351 132.677 122.153V124.367C132.677 124.976 132.705 125.169 132.816 125.322C132.926 125.46 133.148 125.557 133.881 125.598ZM141.451 121.904L136.816 121.918C136.788 122.056 136.775 122.25 136.775 122.347C136.775 124.505 137.978 125.349 139.334 125.349C139.915 125.349 140.552 125.128 141.257 124.616L141.548 124.948C140.732 125.806 139.653 126.249 138.864 126.249C137.19 126.249 135.861 125.031 135.861 122.803C135.861 120.686 137.217 119.151 138.919 119.151C140.386 119.151 141.451 119.995 141.451 121.904ZM136.885 121.434C138.476 121.434 139.5 121.406 139.957 121.351C140.22 121.323 140.358 121.281 140.358 120.991C140.358 120.313 139.832 119.676 138.809 119.676C137.771 119.676 137.024 120.507 136.885 121.434ZM144.583 116.646C144.583 117.075 144.279 117.38 143.864 117.38C143.462 117.38 143.13 117.075 143.13 116.646C143.13 116.19 143.476 115.899 143.864 115.899C144.265 115.899 144.583 116.204 144.583 116.646ZM144.417 119.095L144.541 119.178C144.5 119.995 144.5 121.143 144.5 121.807V124.408C144.5 125.003 144.541 125.197 144.638 125.335C144.735 125.474 144.86 125.543 145.607 125.598V126.027C145.206 126.013 144.625 126 144.071 126C143.49 126 142.95 126.013 142.535 126.027V125.598C143.255 125.557 143.393 125.446 143.476 125.294C143.545 125.156 143.601 124.879 143.601 124.436V121.89C143.601 121.392 143.587 121.102 143.476 120.825C143.407 120.645 143.144 120.465 142.729 120.216V120.036L144.417 119.095ZM150.644 120.963L150.215 120.991C150.104 120.562 150.007 120.313 149.841 120.092C149.606 119.787 149.274 119.704 148.748 119.704C148.07 119.704 147.572 120.119 147.572 120.631C147.572 121.198 147.849 121.586 149.039 122.167C150.505 122.886 150.796 123.509 150.796 124.27C150.796 125.335 149.883 126.249 148.499 126.249C147.877 126.249 147.268 126.152 146.659 125.847C146.631 125.598 146.562 124.823 146.534 124.228L146.95 124.201C147.074 124.713 147.199 124.962 147.448 125.225C147.78 125.571 148.181 125.654 148.79 125.654C149.454 125.654 150.035 125.28 150.035 124.685C150.035 124.118 149.855 123.786 148.43 123.052C147.254 122.444 146.797 121.863 146.797 121.005C146.797 119.925 147.794 119.151 149.191 119.151C149.62 119.151 150.132 119.248 150.561 119.386C150.575 119.69 150.602 120.451 150.644 120.963ZM158.289 119.676V120.285H156.961C157.168 120.562 157.238 121.019 157.238 121.42C157.238 122.776 156.214 123.744 154.761 123.744C154.498 123.744 154.263 123.717 154.125 123.717C153.986 123.717 153.917 123.744 153.834 123.786C153.571 123.938 153.391 124.242 153.391 124.422C153.391 124.588 153.502 124.782 153.654 124.92C153.889 125.128 154.304 125.183 154.969 125.183C156.435 125.183 156.975 125.211 157.459 125.432C157.943 125.654 158.22 126.055 158.22 126.677C158.22 128.324 156.574 129.555 154.581 129.555C152.935 129.555 151.869 128.656 151.869 127.701C151.869 127.259 152.118 126.816 153.419 125.861C152.796 125.626 152.395 125.114 152.395 124.644L153.502 123.509C152.699 123.052 152.312 122.361 152.312 121.489C152.312 120.23 153.433 119.151 154.913 119.151C155.522 119.151 156.006 119.317 156.449 119.676H158.289ZM157.348 127.3C157.348 126.428 156.85 126 154.553 126C154.014 126 153.889 126.027 153.696 126.152C153.128 126.525 152.893 127.023 152.893 127.494C152.893 128.282 153.696 128.905 154.982 128.905C156.324 128.905 157.348 128.172 157.348 127.3ZM153.322 121.337C153.322 122.582 153.972 123.246 154.872 123.246C155.743 123.246 156.255 122.624 156.255 121.627C156.255 120.299 155.66 119.649 154.789 119.649C153.945 119.649 153.322 120.23 153.322 121.337ZM164.827 121.904L160.191 121.918C160.164 122.056 160.15 122.25 160.15 122.347C160.15 124.505 161.354 125.349 162.71 125.349C163.291 125.349 163.927 125.128 164.633 124.616L164.923 124.948C164.107 125.806 163.028 126.249 162.239 126.249C160.565 126.249 159.237 125.031 159.237 122.803C159.237 120.686 160.593 119.151 162.295 119.151C163.761 119.151 164.827 119.995 164.827 121.904ZM160.261 121.434C161.852 121.434 162.876 121.406 163.332 121.351C163.595 121.323 163.733 121.281 163.733 120.991C163.733 120.313 163.208 119.676 162.184 119.676C161.146 119.676 160.399 120.507 160.261 121.434ZM166.976 124.408V117.67C166.976 117.131 166.934 116.882 166.796 116.702C166.699 116.591 166.533 116.48 166.118 116.217V116.01L167.834 115L167.958 115.083C167.903 116.079 167.875 117.587 167.875 118.21V122.305C168.083 122.278 168.373 122.236 168.705 121.946C169.065 121.641 169.356 121.351 169.868 120.825C170.255 120.424 170.283 120.216 170.283 120.078C170.283 119.925 170.117 119.815 169.522 119.815V119.386C170.006 119.4 170.809 119.414 171.141 119.414C171.736 119.414 172.123 119.4 172.483 119.386V119.815C172.234 119.842 172.081 119.884 171.943 119.925C171.487 120.078 171.168 120.341 170.822 120.659L169.065 122.25L171.694 124.92C171.846 125.072 172.012 125.239 172.123 125.322C172.317 125.474 172.635 125.584 173.078 125.598V126.027C172.635 126.013 171.888 126 171.514 126C171.182 126 170.463 126.013 169.978 126.027V125.598C170.518 125.584 170.615 125.488 170.615 125.349C170.615 125.225 170.573 125.1 170.338 124.865L168.719 123.177C168.318 122.776 168.194 122.651 167.875 122.624V124.381C167.875 124.976 167.917 125.197 168.014 125.335C168.111 125.474 168.249 125.543 168.982 125.598V126.027C168.581 126.013 167.972 126 167.419 126C166.838 126 166.326 126.013 165.911 126.027V125.598C166.63 125.557 166.768 125.46 166.851 125.308C166.921 125.169 166.976 124.851 166.976 124.408ZM176.821 125.598V126.027C176.475 126.013 175.867 126 175.216 126C174.635 126 174.109 126.013 173.653 126.027V125.598C174.151 125.557 174.345 125.543 174.511 125.405C174.663 125.28 174.718 124.962 174.718 124.395V121.849C174.718 121.268 174.691 121.06 174.594 120.825C174.497 120.631 174.248 120.451 173.847 120.216V120.036L175.493 119.095L175.631 119.192V120.548C176.337 119.538 176.877 119.192 177.389 119.192C177.707 119.192 178.094 119.386 178.399 119.663L177.721 120.59C177.389 120.327 177.098 120.175 176.807 120.175C176.531 120.175 176.226 120.368 175.977 120.673C175.673 121.032 175.618 121.351 175.618 122.153V124.367C175.618 124.976 175.645 125.169 175.756 125.322C175.867 125.46 176.088 125.557 176.821 125.598ZM182.219 125.695C183.631 125.695 184.447 124.616 184.447 122.942C184.447 121.005 183.451 119.704 182.122 119.704C180.697 119.704 179.839 120.825 179.839 122.471C179.839 124.104 180.6 125.695 182.219 125.695ZM178.802 122.845C178.802 120.465 180.517 119.151 182.302 119.151C184.142 119.151 185.485 120.645 185.485 122.568C185.485 124.74 184.004 126.249 182.081 126.249C180.144 126.249 178.802 124.699 178.802 122.845ZM180.988 118.002C180.656 118.002 180.365 117.726 180.365 117.352C180.365 116.992 180.642 116.702 181.002 116.702C181.361 116.702 181.61 116.992 181.61 117.352C181.61 117.712 181.348 118.002 180.988 118.002ZM183.229 118.002C182.897 118.002 182.607 117.726 182.607 117.352C182.607 116.992 182.883 116.702 183.243 116.702C183.603 116.702 183.852 116.992 183.852 117.352C183.852 117.712 183.589 118.002 183.229 118.002ZM194.051 125.598V126.027C193.608 126.013 193.138 126 192.515 126C192.086 126 191.491 126.013 190.98 126.027V125.598C191.588 125.543 191.782 125.446 191.893 125.322C192.059 125.128 192.086 124.478 192.086 123.329C192.086 122.54 192.073 121.254 191.879 120.7C191.699 120.23 191.325 120.009 190.675 120.009C190.08 120.009 189.292 120.313 188.973 120.645C188.738 120.894 188.71 121.143 188.71 121.807V124.408C188.71 125.003 188.752 125.197 188.849 125.335C188.946 125.474 189.07 125.543 189.817 125.598V126.027C189.416 126.013 188.807 126 188.254 126C187.673 126 187.161 126.013 186.746 126.027V125.598C187.465 125.557 187.604 125.46 187.687 125.308C187.756 125.169 187.811 124.879 187.811 124.436V121.863C187.811 121.364 187.797 121.102 187.687 120.825C187.617 120.645 187.354 120.465 186.939 120.216V120.036L188.586 119.095L188.71 119.178V120.327C189.9 119.497 190.758 119.192 191.325 119.192C191.865 119.192 192.308 119.4 192.598 119.842C192.93 120.341 192.958 120.866 192.958 122.015V124.284C192.958 124.92 192.972 125.169 193.083 125.308C193.193 125.446 193.318 125.529 194.051 125.598ZM195.871 120.147H194.958V119.815C195.885 119.455 196.092 118.957 196.48 117.85H196.839C196.839 117.85 196.839 117.864 196.784 119.538H198.569V120.147H196.756C196.729 122.361 196.729 123.786 196.729 124.118C196.729 124.602 196.784 124.92 196.895 125.114C197.019 125.349 197.268 125.488 197.586 125.488C197.932 125.488 198.264 125.322 198.638 125.072L198.873 125.363C198.292 125.93 197.78 126.166 197.13 126.166C196.618 126.166 196.217 125.944 196.023 125.612C195.871 125.322 195.802 125.031 195.802 124.367C195.802 123.468 195.815 122.305 195.871 120.147ZM205.037 121.904L200.402 121.918C200.375 122.056 200.361 122.25 200.361 122.347C200.361 124.505 201.565 125.349 202.921 125.349C203.502 125.349 204.138 125.128 204.844 124.616L205.134 124.948C204.318 125.806 203.239 126.249 202.45 126.249C200.776 126.249 199.448 125.031 199.448 122.803C199.448 120.686 200.804 119.151 202.505 119.151C203.972 119.151 205.037 119.995 205.037 121.904ZM200.472 121.434C202.063 121.434 203.087 121.406 203.543 121.351C203.806 121.323 203.944 121.281 203.944 120.991C203.944 120.313 203.419 119.676 202.395 119.676C201.357 119.676 200.61 120.507 200.472 121.434ZM135.455 139.171V142.367C135.455 142.962 135.497 143.156 135.594 143.294C135.69 143.432 135.898 143.529 136.645 143.584V144.027C136.285 144.013 135.455 143.986 134.902 143.986C134.321 143.986 133.643 144.013 133.228 144.027V143.584C133.947 143.543 134.21 143.418 134.293 143.266C134.362 143.128 134.418 142.837 134.418 142.395V135.864C134.418 135.421 134.362 135.131 134.293 134.992C134.21 134.84 133.947 134.716 133.228 134.674V134.231C133.643 134.245 134.321 134.273 134.902 134.273C135.455 134.273 136.272 134.245 136.645 134.231V134.674C135.898 134.729 135.69 134.826 135.594 134.965C135.497 135.103 135.455 135.297 135.455 135.892V138.714C135.69 138.7 135.87 138.686 136.119 138.52C136.562 138.216 137.42 137.248 138.624 135.864C139.039 135.38 139.163 135.131 139.163 134.992C139.163 134.826 138.983 134.702 138.25 134.674V134.231C138.485 134.259 139.523 134.273 139.966 134.273C140.561 134.273 141.045 134.259 141.585 134.231V134.674C140.837 134.757 140.464 134.895 139.689 135.698C139.053 136.348 138.333 137.137 136.742 138.714L140.215 142.505C141.003 143.349 141.28 143.543 142.041 143.584V144.027C141.681 144.013 140.948 143.986 140.464 143.986C139.744 143.986 138.845 144 138.388 144.027V143.584C139.108 143.557 139.357 143.501 139.357 143.308C139.357 143.128 139.177 142.893 138.762 142.436L136.465 139.89C135.898 139.268 135.773 139.171 135.455 139.171ZM145.109 143.598V144.027C144.763 144.013 144.155 144 143.504 144C142.923 144 142.397 144.013 141.941 144.027V143.598C142.439 143.557 142.633 143.543 142.799 143.405C142.951 143.28 143.006 142.962 143.006 142.395V139.849C143.006 139.268 142.978 139.06 142.882 138.825C142.785 138.631 142.536 138.451 142.134 138.216V138.036L143.781 137.095L143.919 137.192V138.548C144.625 137.538 145.165 137.192 145.676 137.192C145.995 137.192 146.382 137.386 146.687 137.663L146.009 138.59C145.676 138.327 145.386 138.175 145.095 138.175C144.819 138.175 144.514 138.368 144.265 138.673C143.961 139.032 143.905 139.351 143.905 140.153V142.367C143.905 142.976 143.933 143.169 144.044 143.322C144.155 143.46 144.376 143.557 145.109 143.598ZM152.679 139.904L148.044 139.918C148.017 140.056 148.003 140.25 148.003 140.347C148.003 142.505 149.207 143.349 150.563 143.349C151.144 143.349 151.78 143.128 152.486 142.616L152.776 142.948C151.96 143.806 150.881 144.249 150.092 144.249C148.418 144.249 147.09 143.031 147.09 140.803C147.09 138.686 148.446 137.151 150.147 137.151C151.614 137.151 152.679 137.995 152.679 139.904ZM148.114 139.434C149.705 139.434 150.729 139.406 151.185 139.351C151.448 139.323 151.586 139.281 151.586 138.991C151.586 138.313 151.061 137.676 150.037 137.676C148.999 137.676 148.252 138.507 148.114 139.434ZM159.81 143.156L160.017 143.418C159.422 143.958 159.049 144.138 158.689 144.138C158.343 144.138 158.011 143.93 157.721 143.294C157.112 143.792 156.517 144.179 155.811 144.179C154.704 144.179 153.916 143.363 153.916 142.505C153.916 142.049 154.082 141.689 154.441 141.44C154.926 141.094 155.576 140.914 157.07 140.54C157.582 140.416 157.693 140.347 157.693 139.835C157.693 138.949 157.638 138.548 157.485 138.299C157.306 138.009 156.973 137.801 156.517 137.801C155.714 137.801 155.106 138.161 155.106 138.603C155.106 138.811 155.202 139.06 155.369 139.323L154.483 139.78C154.275 139.447 154.151 139.226 154.151 138.949C154.151 138.603 154.386 138.327 154.732 138.05C155.493 137.441 156.392 137.137 156.946 137.137C157.665 137.137 158.163 137.427 158.399 137.773C158.578 138.05 158.62 138.424 158.62 139.019C158.62 139.6 158.578 140.845 158.578 141.689C158.578 142.989 158.758 143.363 159.215 143.363C159.409 143.363 159.63 143.266 159.81 143.156ZM157.693 142.312V140.859C155.327 141.398 154.94 141.703 154.94 142.436C154.94 142.989 155.438 143.446 156.102 143.446C156.641 143.446 157.153 143.266 157.402 143.059C157.665 142.851 157.693 142.713 157.693 142.312ZM161.51 138.147H160.597V137.815C161.524 137.455 161.732 136.957 162.119 135.85H162.479C162.479 135.85 162.479 135.864 162.424 137.538H164.208V138.147H162.396C162.368 140.361 162.368 141.786 162.368 142.118C162.368 142.602 162.424 142.92 162.534 143.114C162.659 143.349 162.908 143.488 163.226 143.488C163.572 143.488 163.904 143.322 164.278 143.072L164.513 143.363C163.932 143.93 163.42 144.166 162.769 144.166C162.258 144.166 161.856 143.944 161.663 143.612C161.51 143.322 161.441 143.031 161.441 142.367C161.441 141.468 161.455 140.305 161.51 138.147ZM167.161 134.646C167.161 135.075 166.857 135.38 166.442 135.38C166.04 135.38 165.708 135.075 165.708 134.646C165.708 134.19 166.054 133.899 166.442 133.899C166.843 133.899 167.161 134.204 167.161 134.646ZM166.995 137.095L167.12 137.178C167.078 137.995 167.078 139.143 167.078 139.807V142.408C167.078 143.003 167.12 143.197 167.216 143.335C167.313 143.474 167.438 143.543 168.185 143.598V144.027C167.784 144.013 167.203 144 166.649 144C166.068 144 165.528 144.013 165.113 144.027V143.598C165.833 143.557 165.971 143.446 166.054 143.294C166.123 143.156 166.179 142.879 166.179 142.436V139.89C166.179 139.392 166.165 139.102 166.054 138.825C165.985 138.645 165.722 138.465 165.307 138.216V138.036L166.995 137.095ZM171.983 142.851L173.477 139.005C173.616 138.645 173.657 138.396 173.657 138.244C173.657 137.995 173.491 137.842 172.647 137.815V137.386C173.09 137.4 173.602 137.414 174.072 137.414C174.529 137.414 174.93 137.414 175.414 137.386V137.815C174.889 137.87 174.584 138.009 174.321 138.631C173.865 139.696 172.398 143.252 172.066 144.166H171.554C171.25 143.252 170.461 141.26 169.354 138.631C169.064 137.939 168.87 137.856 168.317 137.815V137.386C168.676 137.414 169.437 137.414 169.88 137.414C170.447 137.414 170.959 137.4 171.305 137.386V137.815C170.516 137.842 170.323 137.953 170.323 138.23C170.323 138.382 170.447 138.742 170.558 139.032C171.028 140.305 171.582 141.813 171.983 142.851ZM177.943 134.646C177.943 135.075 177.639 135.38 177.224 135.38C176.823 135.38 176.491 135.075 176.491 134.646C176.491 134.19 176.837 133.899 177.224 133.899C177.625 133.899 177.943 134.204 177.943 134.646ZM177.777 137.095L177.902 137.178C177.86 137.995 177.86 139.143 177.86 139.807V142.408C177.86 143.003 177.902 143.197 177.999 143.335C178.096 143.474 178.22 143.543 178.967 143.598V144.027C178.566 144.013 177.985 144 177.432 144C176.85 144 176.311 144.013 175.896 144.027V143.598C176.615 143.557 176.754 143.446 176.837 143.294C176.906 143.156 176.961 142.879 176.961 142.436V139.89C176.961 139.392 176.947 139.102 176.837 138.825C176.767 138.645 176.505 138.465 176.089 138.216V138.036L177.777 137.095ZM180.684 138.147H179.77V137.815C180.697 137.455 180.905 136.957 181.292 135.85H181.652C181.652 135.85 181.652 135.864 181.597 137.538H183.382V138.147H181.569C181.541 140.361 181.541 141.786 181.541 142.118C181.541 142.602 181.597 142.92 181.707 143.114C181.832 143.349 182.081 143.488 182.399 143.488C182.745 143.488 183.077 143.322 183.451 143.072L183.686 143.363C183.105 143.93 182.593 144.166 181.943 144.166C181.431 144.166 181.029 143.944 180.836 143.612C180.684 143.322 180.614 143.031 180.614 142.367C180.614 141.468 180.628 140.305 180.684 138.147ZM190.333 143.156L190.54 143.418C189.945 143.958 189.572 144.138 189.212 144.138C188.866 144.138 188.534 143.93 188.244 143.294C187.635 143.792 187.04 144.179 186.334 144.179C185.227 144.179 184.439 143.363 184.439 142.505C184.439 142.049 184.605 141.689 184.965 141.44C185.449 141.094 186.099 140.914 187.593 140.54C188.105 140.416 188.216 140.347 188.216 139.835C188.216 138.949 188.161 138.548 188.008 138.299C187.829 138.009 187.497 137.801 187.04 137.801C186.237 137.801 185.629 138.161 185.629 138.603C185.629 138.811 185.726 139.06 185.892 139.323L185.006 139.78C184.798 139.447 184.674 139.226 184.674 138.949C184.674 138.603 184.909 138.327 185.255 138.05C186.016 137.441 186.915 137.137 187.469 137.137C188.188 137.137 188.686 137.427 188.922 137.773C189.101 138.05 189.143 138.424 189.143 139.019C189.143 139.6 189.101 140.845 189.101 141.689C189.101 142.989 189.281 143.363 189.738 143.363C189.932 143.363 190.153 143.266 190.333 143.156ZM188.216 142.312V140.859C185.85 141.398 185.463 141.703 185.463 142.436C185.463 142.989 185.961 143.446 186.625 143.446C187.164 143.446 187.676 143.266 187.925 143.059C188.188 142.851 188.216 142.713 188.216 142.312ZM185.947 136.002C185.615 136.002 185.324 135.726 185.324 135.352C185.324 134.992 185.601 134.702 185.961 134.702C186.32 134.702 186.57 134.992 186.57 135.352C186.57 135.712 186.307 136.002 185.947 136.002ZM188.188 136.002C187.856 136.002 187.566 135.726 187.566 135.352C187.566 134.992 187.842 134.702 188.202 134.702C188.562 134.702 188.811 134.992 188.811 135.352C188.811 135.712 188.548 136.002 188.188 136.002ZM192.033 138.147H191.12V137.815C192.047 137.455 192.255 136.957 192.642 135.85H193.002C193.002 135.85 193.002 135.864 192.947 137.538H194.731V138.147H192.919C192.891 140.361 192.891 141.786 192.891 142.118C192.891 142.602 192.947 142.92 193.057 143.114C193.182 143.349 193.431 143.488 193.749 143.488C194.095 143.488 194.427 143.322 194.801 143.072L195.036 143.363C194.455 143.93 193.943 144.166 193.293 144.166C192.781 144.166 192.379 143.944 192.186 143.612C192.033 143.322 191.964 143.031 191.964 142.367C191.964 141.468 191.978 140.305 192.033 138.147Z" fill="white"/>
<path d="M140.888 360.719C140.888 361.314 140.901 363.915 140.901 364.759C140.901 367.181 139.781 368.592 137.069 368.592C135.658 368.592 134.426 368.066 133.776 367.139C133.416 366.627 133.25 365.866 133.25 364.87V360.235C133.25 359.792 133.195 359.502 133.126 359.363C133.043 359.211 132.78 359.087 132.06 359.045V358.602C132.475 358.616 133.153 358.644 133.734 358.644C134.288 358.644 135.132 358.616 135.519 358.602V359.045C134.772 359.1 134.523 359.197 134.426 359.336C134.329 359.474 134.288 359.668 134.288 360.263C134.274 361.411 134.274 363.154 134.274 364.33C134.274 365.244 134.385 366.088 134.675 366.586C135.173 367.416 136.086 367.817 137.249 367.817C140.085 367.817 140.265 366.115 140.265 363.888C140.265 362.961 140.251 361.176 140.21 360.664C140.099 359.266 139.864 359.1 138.771 359.045V358.602C139.269 358.616 139.864 358.63 140.556 358.63C141.22 358.63 141.662 358.616 142.188 358.602V359.045C141.164 359.1 140.888 359.266 140.888 360.719ZM144.091 366.807V359.986C144.091 359.419 144.05 359.239 143.911 359.059C143.814 358.948 143.648 358.851 143.233 358.588V358.381L144.963 357.371L145.087 357.454C145.032 358.45 145.004 359.958 145.004 360.581V366.779C145.004 367.374 145.046 367.568 145.143 367.706C145.239 367.845 145.364 367.928 146.111 367.969V368.398C145.71 368.384 145.101 368.371 144.548 368.371C143.967 368.371 143.441 368.384 143.026 368.398V367.969C143.745 367.928 143.884 367.831 143.967 367.679C144.036 367.54 144.091 367.25 144.091 366.807ZM147.949 362.518H147.035V362.186C147.962 361.826 148.17 361.328 148.557 360.221H148.917C148.917 360.221 148.917 360.235 148.862 361.909H150.647V362.518H148.834C148.806 364.732 148.806 366.157 148.806 366.489C148.806 366.973 148.862 367.291 148.972 367.485C149.097 367.72 149.346 367.859 149.664 367.859C150.01 367.859 150.342 367.693 150.716 367.444L150.951 367.734C150.37 368.301 149.858 368.537 149.208 368.537C148.696 368.537 148.294 368.315 148.101 367.983C147.949 367.693 147.879 367.402 147.879 366.738C147.879 365.839 147.893 364.676 147.949 362.518ZM153.599 359.017C153.599 359.446 153.295 359.751 152.88 359.751C152.479 359.751 152.147 359.446 152.147 359.017C152.147 358.561 152.492 358.27 152.88 358.27C153.281 358.27 153.599 358.575 153.599 359.017ZM153.433 361.466L153.558 361.549C153.516 362.366 153.516 363.514 153.516 364.178V366.779C153.516 367.374 153.558 367.568 153.655 367.706C153.752 367.845 153.876 367.914 154.623 367.969V368.398C154.222 368.384 153.641 368.371 153.087 368.371C152.506 368.371 151.967 368.384 151.552 368.398V367.969C152.271 367.928 152.409 367.817 152.492 367.665C152.562 367.527 152.617 367.25 152.617 366.807V364.261C152.617 363.763 152.603 363.473 152.492 363.196C152.423 363.016 152.16 362.836 151.745 362.587V362.407L153.433 361.466ZM161.542 362.795C162.593 361.964 163.562 361.563 164.129 361.563C164.669 361.563 165.111 361.812 165.402 362.255C165.72 362.753 165.762 363.279 165.762 364.427V366.655C165.762 367.291 165.776 367.54 165.886 367.679C165.997 367.817 166.121 367.9 166.855 367.969V368.398C166.412 368.384 165.914 368.371 165.291 368.371C164.862 368.371 164.281 368.384 163.769 368.398V367.969C164.475 367.914 164.613 367.817 164.696 367.693C164.876 367.43 164.89 366.779 164.89 365.686C164.89 364.898 164.876 363.625 164.683 363.071C164.503 362.601 164.184 362.38 163.534 362.38C162.939 362.38 162.234 362.712 161.915 363.044C161.68 363.293 161.652 363.514 161.652 364.178V366.655C161.652 367.291 161.666 367.54 161.777 367.679C161.888 367.817 162.012 367.9 162.745 367.969V368.398C162.303 368.384 161.832 368.371 161.21 368.371C160.781 368.371 160.172 368.384 159.66 368.398V367.969C160.366 367.914 160.504 367.817 160.587 367.693C160.767 367.43 160.781 366.779 160.781 365.686C160.781 364.898 160.767 363.625 160.573 363.071C160.393 362.601 160.047 362.38 159.397 362.38C158.858 362.38 158.11 362.67 157.792 363.002C157.557 363.251 157.529 363.473 157.529 364.137V366.779C157.529 367.374 157.571 367.568 157.668 367.706C157.764 367.845 157.889 367.914 158.636 367.969V368.398C158.235 368.384 157.654 368.371 157.1 368.371C156.519 368.371 155.98 368.384 155.565 368.398V367.969C156.284 367.928 156.422 367.831 156.505 367.679C156.575 367.54 156.63 367.25 156.63 366.807V364.234C156.63 363.735 156.616 363.473 156.505 363.196C156.436 363.016 156.173 362.836 155.758 362.587V362.407L157.405 361.466L157.529 361.549V362.698C158.719 361.868 159.425 361.563 159.992 361.563C160.822 361.563 161.348 362.103 161.542 362.795ZM173.947 367.527L174.155 367.789C173.56 368.329 173.186 368.509 172.826 368.509C172.481 368.509 172.148 368.301 171.858 367.665C171.249 368.163 170.654 368.55 169.949 368.55C168.842 368.55 168.053 367.734 168.053 366.876C168.053 366.42 168.219 366.06 168.579 365.811C169.063 365.465 169.713 365.285 171.208 364.912C171.72 364.787 171.83 364.718 171.83 364.206C171.83 363.32 171.775 362.919 171.623 362.67C171.443 362.38 171.111 362.172 170.654 362.172C169.852 362.172 169.243 362.532 169.243 362.975C169.243 363.182 169.34 363.431 169.506 363.694L168.62 364.151C168.413 363.819 168.288 363.597 168.288 363.32C168.288 362.975 168.523 362.698 168.869 362.421C169.63 361.812 170.53 361.508 171.083 361.508C171.803 361.508 172.301 361.798 172.536 362.144C172.716 362.421 172.757 362.795 172.757 363.39C172.757 363.971 172.716 365.216 172.716 366.06C172.716 367.361 172.896 367.734 173.352 367.734C173.546 367.734 173.767 367.637 173.947 367.527ZM171.83 366.683V365.23C169.464 365.769 169.077 366.074 169.077 366.807C169.077 367.361 169.575 367.817 170.239 367.817C170.779 367.817 171.291 367.637 171.54 367.43C171.803 367.222 171.83 367.084 171.83 366.683ZM175.648 362.518H174.734V362.186C175.661 361.826 175.869 361.328 176.256 360.221H176.616C176.616 360.221 176.616 360.235 176.561 361.909H178.346V362.518H176.533C176.505 364.732 176.505 366.157 176.505 366.489C176.505 366.973 176.561 367.291 176.672 367.485C176.796 367.72 177.045 367.859 177.363 367.859C177.709 367.859 178.041 367.693 178.415 367.444L178.65 367.734C178.069 368.301 177.557 368.537 176.907 368.537C176.395 368.537 175.994 368.315 175.8 367.983C175.648 367.693 175.578 367.402 175.578 366.738C175.578 365.839 175.592 364.676 175.648 362.518ZM181.298 359.017C181.298 359.446 180.994 359.751 180.579 359.751C180.178 359.751 179.846 359.446 179.846 359.017C179.846 358.561 180.191 358.27 180.579 358.27C180.98 358.27 181.298 358.575 181.298 359.017ZM181.132 361.466L181.257 361.549C181.215 362.366 181.215 363.514 181.215 364.178V366.779C181.215 367.374 181.257 367.568 181.354 367.706C181.451 367.845 181.575 367.914 182.322 367.969V368.398C181.921 368.384 181.34 368.371 180.786 368.371C180.205 368.371 179.666 368.384 179.251 368.398V367.969C179.97 367.928 180.108 367.817 180.191 367.665C180.261 367.527 180.316 367.25 180.316 366.807V364.261C180.316 363.763 180.302 363.473 180.191 363.196C180.122 363.016 179.859 362.836 179.444 362.587V362.407L181.132 361.466ZM186.12 367.222L187.615 363.376C187.753 363.016 187.794 362.767 187.794 362.615C187.794 362.366 187.628 362.214 186.784 362.186V361.757C187.227 361.771 187.739 361.785 188.21 361.785C188.666 361.785 189.067 361.785 189.552 361.757V362.186C189.026 362.241 188.722 362.38 188.459 363.002C188.002 364.068 186.535 367.623 186.203 368.537H185.691C185.387 367.623 184.598 365.631 183.491 363.002C183.201 362.31 183.007 362.227 182.454 362.186V361.757C182.814 361.785 183.575 361.785 184.017 361.785C184.585 361.785 185.096 361.771 185.442 361.757V362.186C184.654 362.214 184.46 362.324 184.46 362.601C184.46 362.753 184.585 363.113 184.695 363.403C185.166 364.676 185.719 366.184 186.12 367.222ZM195.61 364.275L190.975 364.289C190.947 364.427 190.934 364.621 190.934 364.718C190.934 366.876 192.137 367.72 193.493 367.72C194.074 367.72 194.711 367.499 195.417 366.987L195.707 367.319C194.891 368.177 193.812 368.62 193.023 368.62C191.349 368.62 190.02 367.402 190.02 365.174C190.02 363.058 191.376 361.522 193.078 361.522C194.545 361.522 195.61 362.366 195.61 364.275ZM191.044 363.805C192.635 363.805 193.659 363.777 194.116 363.722C194.379 363.694 194.517 363.652 194.517 363.362C194.517 362.684 193.991 362.048 192.968 362.048C191.93 362.048 191.183 362.878 191.044 363.805ZM107.843 376.436C110.679 376.436 112.588 378.609 112.588 381.334C112.588 384.351 110.485 386.578 107.607 386.578C104.854 386.578 102.779 384.53 102.779 381.666C102.779 378.692 104.992 376.436 107.843 376.436ZM107.815 385.983C109.849 385.983 111.399 384.364 111.399 381.68C111.399 378.664 109.641 377.031 107.594 377.031C105.56 377.031 103.969 378.733 103.969 381.39C103.969 384.074 105.394 385.983 107.815 385.983ZM115.706 378.581V380.739C116.633 380.02 117.518 379.591 118.224 379.591C119.621 379.591 120.756 380.947 120.756 382.787C120.756 384.849 119.344 386.564 117.407 386.564C116.868 386.564 115.968 386.412 115.415 386.135L115.083 386.606L114.737 386.509C114.792 385.734 114.806 384.724 114.806 384.074V378.014C114.806 377.474 114.765 377.239 114.626 377.073C114.53 376.962 114.363 376.838 113.948 376.588V376.381L115.664 375.371L115.789 375.454C115.733 376.45 115.706 377.958 115.706 378.581ZM115.692 382.081V383.991C115.706 384.503 115.719 384.904 115.927 385.222C116.19 385.623 116.951 385.886 117.656 385.886C119.068 385.886 119.801 384.779 119.801 383.327C119.801 381.514 118.929 380.407 117.56 380.407C116.812 380.407 115.927 380.933 115.775 381.32C115.706 381.486 115.692 381.722 115.692 382.081ZM126.11 381.334L125.681 381.362C125.571 380.933 125.474 380.684 125.308 380.463C125.073 380.158 124.741 380.075 124.215 380.075C123.537 380.075 123.039 380.49 123.039 381.002C123.039 381.569 123.315 381.957 124.505 382.538C125.972 383.257 126.263 383.88 126.263 384.641C126.263 385.706 125.349 386.62 123.966 386.62C123.343 386.62 122.734 386.523 122.126 386.218C122.098 385.969 122.029 385.195 122.001 384.6L122.416 384.572C122.541 385.084 122.665 385.333 122.914 385.596C123.246 385.942 123.648 386.025 124.256 386.025C124.92 386.025 125.502 385.651 125.502 385.056C125.502 384.489 125.322 384.157 123.897 383.423C122.721 382.815 122.264 382.234 122.264 381.376C122.264 380.297 123.26 379.522 124.658 379.522C125.087 379.522 125.598 379.619 126.027 379.757C126.041 380.061 126.069 380.822 126.11 381.334ZM133.078 382.275L128.443 382.289C128.415 382.427 128.401 382.621 128.401 382.718C128.401 384.876 129.605 385.72 130.961 385.72C131.542 385.72 132.179 385.499 132.884 384.987L133.175 385.319C132.358 386.177 131.279 386.62 130.491 386.62C128.816 386.62 127.488 385.402 127.488 383.174C127.488 381.058 128.844 379.522 130.546 379.522C132.013 379.522 133.078 380.366 133.078 382.275ZM128.512 381.805C130.103 381.805 131.127 381.777 131.584 381.722C131.846 381.694 131.985 381.652 131.985 381.362C131.985 380.684 131.459 380.048 130.435 380.048C129.398 380.048 128.65 380.878 128.512 381.805ZM138.257 381.334L137.829 381.362C137.718 380.933 137.621 380.684 137.455 380.463C137.22 380.158 136.888 380.075 136.362 380.075C135.684 380.075 135.186 380.49 135.186 381.002C135.186 381.569 135.463 381.957 136.652 382.538C138.119 383.257 138.41 383.88 138.41 384.641C138.41 385.706 137.496 386.62 136.113 386.62C135.49 386.62 134.881 386.523 134.273 386.218C134.245 385.969 134.176 385.195 134.148 384.6L134.563 384.572C134.688 385.084 134.812 385.333 135.061 385.596C135.393 385.942 135.795 386.025 136.403 386.025C137.068 386.025 137.649 385.651 137.649 385.056C137.649 384.489 137.469 384.157 136.044 383.423C134.868 382.815 134.411 382.234 134.411 381.376C134.411 380.297 135.407 379.522 136.805 379.522C137.234 379.522 137.745 379.619 138.174 379.757C138.188 380.061 138.216 380.822 138.257 381.334ZM143.689 381.334L143.26 381.362C143.15 380.933 143.053 380.684 142.887 380.463C142.651 380.158 142.319 380.075 141.794 380.075C141.116 380.075 140.618 380.49 140.618 381.002C140.618 381.569 140.894 381.957 142.084 382.538C143.551 383.257 143.841 383.88 143.841 384.641C143.841 385.706 142.928 386.62 141.545 386.62C140.922 386.62 140.313 386.523 139.704 386.218C139.677 385.969 139.608 385.195 139.58 384.6L139.995 384.572C140.119 385.084 140.244 385.333 140.493 385.596C140.825 385.942 141.226 386.025 141.835 386.025C142.499 386.025 143.08 385.651 143.08 385.056C143.08 384.489 142.9 384.157 141.475 383.423C140.299 382.815 139.843 382.234 139.843 381.376C139.843 380.297 140.839 379.522 142.236 379.522C142.665 379.522 143.177 379.619 143.606 379.757C143.62 380.061 143.648 380.822 143.689 381.334ZM147.073 377.017C147.073 377.446 146.769 377.751 146.354 377.751C145.952 377.751 145.62 377.446 145.62 377.017C145.62 376.561 145.966 376.27 146.354 376.27C146.755 376.27 147.073 376.575 147.073 377.017ZM146.907 379.466L147.032 379.549C146.99 380.366 146.99 381.514 146.99 382.178V384.779C146.99 385.374 147.032 385.568 147.128 385.706C147.225 385.845 147.35 385.914 148.097 385.969V386.398C147.696 386.384 147.115 386.371 146.561 386.371C145.98 386.371 145.44 386.384 145.025 386.398V385.969C145.745 385.928 145.883 385.817 145.966 385.665C146.035 385.527 146.091 385.25 146.091 384.807V382.261C146.091 381.763 146.077 381.473 145.966 381.196C145.897 381.016 145.634 380.836 145.219 380.587V380.407L146.907 379.466ZM152.497 386.066C153.909 386.066 154.725 384.987 154.725 383.313C154.725 381.376 153.729 380.075 152.401 380.075C150.975 380.075 150.118 381.196 150.118 382.842C150.118 384.475 150.879 386.066 152.497 386.066ZM149.08 383.216C149.08 380.836 150.796 379.522 152.58 379.522C154.421 379.522 155.763 381.016 155.763 382.939C155.763 385.111 154.282 386.62 152.359 386.62C150.422 386.62 149.08 385.07 149.08 383.216ZM164.329 385.969V386.398C163.886 386.384 163.416 386.371 162.793 386.371C162.365 386.371 161.77 386.384 161.258 386.398V385.969C161.866 385.914 162.06 385.817 162.171 385.693C162.337 385.499 162.365 384.849 162.365 383.7C162.365 382.912 162.351 381.625 162.157 381.071C161.977 380.601 161.604 380.38 160.953 380.38C160.358 380.38 159.57 380.684 159.251 381.016C159.016 381.265 158.989 381.514 158.989 382.178V384.779C158.989 385.374 159.03 385.568 159.127 385.706C159.224 385.845 159.348 385.914 160.095 385.969V386.398C159.694 386.384 159.085 386.371 158.532 386.371C157.951 386.371 157.439 386.384 157.024 386.398V385.969C157.743 385.928 157.882 385.831 157.965 385.679C158.034 385.54 158.089 385.25 158.089 384.807V382.234C158.089 381.735 158.075 381.473 157.965 381.196C157.895 381.016 157.633 380.836 157.218 380.587V380.407L158.864 379.466L158.989 379.549V380.698C160.178 379.868 161.036 379.563 161.604 379.563C162.143 379.563 162.586 379.771 162.876 380.214C163.209 380.712 163.236 381.237 163.236 382.386V384.655C163.236 385.291 163.25 385.54 163.361 385.679C163.471 385.817 163.596 385.9 164.329 385.969ZM171.719 385.969V386.398C171.235 386.371 170.681 386.371 170.141 386.371C169.588 386.371 168.952 386.384 168.523 386.398V385.969C168.924 385.942 169.187 385.9 169.297 385.845C169.505 385.734 169.588 385.54 169.588 384.793V380.518H168.633V380.158C168.91 380.089 169.256 379.895 169.422 379.619C169.547 379.411 169.616 379.287 169.685 378.65C169.809 377.432 170.169 376.713 170.958 376.063C171.484 375.62 172.106 375.399 172.604 375.399C173.033 375.399 173.559 375.509 174.016 375.869L173.393 376.796C172.853 376.353 172.383 376.229 171.954 376.229C171.553 376.229 171.179 376.436 170.972 376.727C170.653 377.183 170.515 377.792 170.515 378.858V379.909H172.231V380.518H170.501V384.738C170.501 385.278 170.529 385.527 170.64 385.679C170.736 385.803 170.875 385.914 171.719 385.969ZM180.052 385.693V386.052L178.184 386.647L178.059 386.55V385.513C177.022 386.371 176.205 386.578 175.638 386.578C174.545 386.578 173.756 385.983 173.756 384.115V381.32C173.756 380.559 173.563 380.393 172.691 380.366V379.923C173.659 379.84 174.379 379.743 174.766 379.674C174.67 381.127 174.656 382.455 174.656 383.147C174.656 385.347 175.181 385.803 176.219 385.803C176.8 385.803 177.575 385.485 177.879 385.028C178.018 384.862 178.073 384.655 178.073 383.991V381.334C178.073 380.463 177.879 380.38 176.925 380.366V379.923C177.81 379.84 178.571 379.743 179.028 379.66C179 380.324 178.973 381.071 178.973 381.431V384.613C178.973 385.111 179 385.416 179.111 385.54C179.222 385.679 179.429 385.693 180.052 385.693ZM175.278 378.373C174.946 378.373 174.656 378.097 174.656 377.723C174.656 377.363 174.932 377.073 175.292 377.073C175.652 377.073 175.901 377.363 175.901 377.723C175.901 378.083 175.638 378.373 175.278 378.373ZM177.52 378.373C177.188 378.373 176.897 378.097 176.897 377.723C176.897 377.363 177.174 377.073 177.534 377.073C177.893 377.073 178.142 377.363 178.142 377.723C178.142 378.083 177.879 378.373 177.52 378.373ZM184.23 385.969V386.398C183.884 386.384 183.275 386.371 182.625 386.371C182.044 386.371 181.518 386.384 181.061 386.398V385.969C181.559 385.928 181.753 385.914 181.919 385.776C182.071 385.651 182.127 385.333 182.127 384.766V382.22C182.127 381.639 182.099 381.431 182.002 381.196C181.905 381.002 181.656 380.822 181.255 380.587V380.407L182.901 379.466L183.04 379.563V380.919C183.745 379.909 184.285 379.563 184.797 379.563C185.115 379.563 185.503 379.757 185.807 380.034L185.129 380.961C184.797 380.698 184.506 380.546 184.216 380.546C183.939 380.546 183.635 380.739 183.386 381.044C183.081 381.403 183.026 381.722 183.026 382.524V384.738C183.026 385.347 183.054 385.54 183.164 385.693C183.275 385.831 183.496 385.928 184.23 385.969ZM191.046 386.357C190.465 386.357 189.815 386.384 189.4 386.398V385.955C190.119 385.914 190.382 385.789 190.465 385.637C190.534 385.499 190.59 385.208 190.59 384.766V378.235C190.59 377.792 190.534 377.502 190.465 377.363C190.382 377.211 190.119 377.087 189.4 377.045V376.602C189.815 376.616 190.465 376.63 191.046 376.63C191.392 376.63 192.734 376.602 193.274 376.602C197.037 376.602 198.725 378.484 198.725 381.334C198.725 384.89 196.304 386.384 192.942 386.384C192.361 386.384 191.461 386.357 191.046 386.357ZM191.628 377.197V384.406C191.628 384.71 191.641 385.167 191.738 385.361C191.89 385.665 192.485 385.789 193.412 385.789C195.764 385.789 197.535 384.42 197.535 381.5C197.535 379.024 196.553 377.17 192.9 377.17C192.568 377.17 192.001 377.17 191.628 377.197ZM206.186 385.527L206.394 385.789C205.799 386.329 205.425 386.509 205.065 386.509C204.72 386.509 204.387 386.301 204.097 385.665C203.488 386.163 202.893 386.55 202.188 386.55C201.081 386.55 200.292 385.734 200.292 384.876C200.292 384.42 200.458 384.06 200.818 383.811C201.302 383.465 201.952 383.285 203.447 382.912C203.959 382.787 204.069 382.718 204.069 382.206C204.069 381.32 204.014 380.919 203.862 380.67C203.682 380.38 203.35 380.172 202.893 380.172C202.091 380.172 201.482 380.532 201.482 380.975C201.482 381.182 201.579 381.431 201.745 381.694L200.859 382.151C200.652 381.819 200.527 381.597 200.527 381.32C200.527 380.975 200.762 380.698 201.108 380.421C201.869 379.812 202.769 379.508 203.322 379.508C204.042 379.508 204.54 379.798 204.775 380.144C204.955 380.421 204.996 380.795 204.996 381.39C204.996 381.971 204.955 383.216 204.955 384.06C204.955 385.361 205.135 385.734 205.591 385.734C205.785 385.734 206.006 385.637 206.186 385.527ZM204.069 384.683V383.23C201.703 383.769 201.316 384.074 201.316 384.807C201.316 385.361 201.814 385.817 202.478 385.817C203.018 385.817 203.53 385.637 203.779 385.43C204.042 385.222 204.069 385.084 204.069 384.683ZM207.887 380.518H206.973V380.186C207.901 379.826 208.108 379.328 208.495 378.221H208.855C208.855 378.221 208.855 378.235 208.8 379.909H210.585V380.518H208.772C208.745 382.732 208.745 384.157 208.745 384.489C208.745 384.973 208.8 385.291 208.911 385.485C209.035 385.72 209.284 385.859 209.602 385.859C209.948 385.859 210.28 385.693 210.654 385.444L210.889 385.734C210.308 386.301 209.796 386.537 209.146 386.537C208.634 386.537 208.233 386.315 208.039 385.983C207.887 385.693 207.817 385.402 207.817 384.738C207.817 383.839 207.831 382.676 207.887 380.518ZM217.053 382.275L212.418 382.289C212.391 382.427 212.377 382.621 212.377 382.718C212.377 384.876 213.581 385.72 214.936 385.72C215.518 385.72 216.154 385.499 216.86 384.987L217.15 385.319C216.334 386.177 215.255 386.62 214.466 386.62C212.792 386.62 211.464 385.402 211.464 383.174C211.464 381.058 212.82 379.522 214.521 379.522C215.988 379.522 217.053 380.366 217.053 382.275ZM212.487 381.805C214.079 381.805 215.102 381.777 215.559 381.722C215.822 381.694 215.96 381.652 215.96 381.362C215.96 380.684 215.435 380.048 214.411 380.048C213.373 380.048 212.626 380.878 212.487 381.805ZM225.443 385.969V386.398C225 386.384 224.53 386.371 223.907 386.371C223.478 386.371 222.883 386.384 222.371 386.398V385.969C222.98 385.914 223.174 385.817 223.284 385.693C223.45 385.499 223.478 384.849 223.478 383.7C223.478 382.912 223.464 381.625 223.271 381.071C223.091 380.601 222.717 380.38 222.067 380.38C221.472 380.38 220.683 380.684 220.365 381.016C220.13 381.265 220.102 381.514 220.102 382.178V384.779C220.102 385.374 220.144 385.568 220.241 385.706C220.337 385.845 220.462 385.914 221.209 385.969V386.398C220.808 386.384 220.199 386.371 219.646 386.371C219.064 386.371 218.553 386.384 218.137 386.398V385.969C218.857 385.928 218.995 385.831 219.078 385.679C219.147 385.54 219.203 385.25 219.203 384.807V382.234C219.203 381.735 219.189 381.473 219.078 381.196C219.009 381.016 218.746 380.836 218.331 380.587V380.407L219.978 379.466L220.102 379.549V380.698C221.292 379.868 222.15 379.563 222.717 379.563C223.257 379.563 223.7 379.771 223.99 380.214C224.322 380.712 224.35 381.237 224.35 382.386V384.655C224.35 385.291 224.364 385.54 224.474 385.679C224.585 385.817 224.71 385.9 225.443 385.969ZM123.216 398.407C124.323 397.826 124.669 397.3 124.669 396.539C124.669 395.917 124.31 395.294 123.452 395.294C122.76 395.294 122.22 395.737 122.22 396.539C122.22 397.19 122.469 397.605 123.216 398.407ZM122.594 399.265C121.501 399.86 120.74 400.4 120.74 401.728C120.74 402.904 121.695 403.776 123.092 403.776C124.227 403.776 125.043 403.167 125.596 402.586C124.559 401.396 123.383 400.109 122.594 399.265ZM126.662 402.198C127.865 403.596 128.253 403.859 128.889 403.859C129.277 403.859 129.54 403.734 129.858 403.527L130.093 403.817C129.553 404.329 129 404.675 128.28 404.675C127.561 404.675 126.869 404.149 125.97 403.042C125.347 403.679 124.42 404.606 122.635 404.606C121.487 404.606 119.674 403.817 119.674 401.866C119.674 400.22 120.795 399.569 122.234 398.864C121.888 398.49 121.238 397.757 121.238 396.788C121.238 395.737 122.054 394.727 123.507 394.727C124.752 394.727 125.513 395.405 125.513 396.512C125.513 397.715 124.406 398.338 123.59 398.767C124.296 399.556 125.804 401.216 126.288 401.742C126.8 401.05 127.257 400.151 127.506 399.431C127.616 399.099 127.644 398.933 127.644 398.739C127.644 398.518 127.506 398.269 126.579 398.227V397.785C126.994 397.798 127.686 397.826 128.267 397.826C128.82 397.826 129.36 397.798 129.733 397.785V398.227C129.055 398.283 128.848 398.407 128.709 398.601C128.599 398.767 128.474 399.016 128.267 399.445C127.755 400.524 127.27 401.41 126.662 402.198ZM138.348 395.225V402.738C138.348 403.347 138.404 403.527 138.5 403.665C138.625 403.845 139.026 403.9 139.773 403.955V404.398C139.386 404.384 138.348 404.357 137.795 404.357C137.214 404.357 136.37 404.371 135.927 404.398V403.955C136.743 403.914 137.048 403.817 137.172 403.651C137.255 403.527 137.311 403.25 137.311 402.766V395.239C137.061 395.211 136.771 395.211 136.467 395.211C135.54 395.211 134.889 395.211 134.557 395.502C134.28 395.751 134.101 396.083 133.893 396.788L133.45 396.719C133.575 395.972 133.685 395.073 133.741 394.243H134.17C134.211 394.367 134.253 394.436 134.336 394.492C134.46 394.588 134.848 394.644 137.85 394.644C141.046 394.644 141.212 394.616 141.392 394.561C141.544 394.519 141.71 394.367 141.78 394.229L142.208 394.27C142.153 394.713 142.056 395.931 142.015 396.761H141.558C141.503 395.972 141.378 395.529 140.866 395.336C140.52 395.211 139.926 395.197 139.068 395.197C138.832 395.197 138.57 395.211 138.348 395.225ZM147.63 400.275L142.995 400.289C142.967 400.427 142.953 400.621 142.953 400.718C142.953 402.876 144.157 403.72 145.513 403.72C146.094 403.72 146.731 403.499 147.436 402.987L147.727 403.319C146.911 404.177 145.831 404.62 145.043 404.62C143.369 404.62 142.04 403.402 142.04 401.174C142.04 399.058 143.396 397.522 145.098 397.522C146.565 397.522 147.63 398.366 147.63 400.275ZM143.064 399.805C144.655 399.805 145.679 399.777 146.136 399.722C146.399 399.694 146.537 399.652 146.537 399.362C146.537 398.684 146.011 398.048 144.987 398.048C143.95 398.048 143.203 398.878 143.064 399.805ZM154.027 398.2L153.294 399.03C152.727 398.49 152.242 398.324 151.606 398.324C150.582 398.324 149.669 399.224 149.669 400.884C149.669 402.793 150.803 403.72 151.993 403.72C152.727 403.72 153.28 403.485 153.944 403.001L154.249 403.333C153.391 404.191 152.63 404.62 151.717 404.62C150.125 404.62 148.756 403.388 148.756 401.41C148.756 398.808 150.665 397.522 152.284 397.522C152.823 397.522 153.474 397.688 154.027 398.2ZM156.61 396.581V398.698C157.8 397.868 158.658 397.563 159.225 397.563C159.765 397.563 160.208 397.771 160.498 398.214C160.83 398.712 160.858 399.237 160.858 400.386V402.655C160.858 403.291 160.872 403.54 160.983 403.679C161.093 403.817 161.218 403.9 161.951 403.969V404.398C161.508 404.384 161.038 404.371 160.415 404.371C159.986 404.371 159.392 404.384 158.88 404.398V403.969C159.488 403.914 159.682 403.817 159.793 403.693C159.959 403.499 159.986 402.835 159.986 401.686C159.986 400.898 159.973 399.625 159.779 399.071C159.599 398.601 159.225 398.38 158.575 398.38C157.98 398.38 157.192 398.684 156.873 399.016C156.638 399.265 156.61 399.514 156.61 400.178V402.779C156.61 403.374 156.652 403.568 156.749 403.706C156.846 403.845 156.97 403.914 157.717 403.969V404.398C157.316 404.384 156.707 404.371 156.154 404.371C155.573 404.371 155.061 404.384 154.646 404.398V403.969C155.365 403.928 155.504 403.831 155.587 403.679C155.656 403.54 155.711 403.25 155.711 402.807V396.027C155.711 395.516 155.683 395.239 155.531 395.073C155.434 394.962 155.268 394.851 154.853 394.588V394.381L156.569 393.371L156.693 393.454C156.638 394.45 156.61 395.958 156.61 396.581ZM170.301 403.969V404.398C169.859 404.384 169.388 404.371 168.766 404.371C168.337 404.371 167.742 404.384 167.23 404.398V403.969C167.839 403.914 168.032 403.817 168.143 403.693C168.309 403.499 168.337 402.849 168.337 401.7C168.337 400.912 168.323 399.625 168.129 399.071C167.949 398.601 167.576 398.38 166.925 398.38C166.331 398.38 165.542 398.684 165.224 399.016C164.988 399.265 164.961 399.514 164.961 400.178V402.779C164.961 403.374 165.002 403.568 165.099 403.706C165.196 403.845 165.32 403.914 166.068 403.969V404.398C165.666 404.384 165.058 404.371 164.504 404.371C163.923 404.371 163.411 404.384 162.996 404.398V403.969C163.715 403.928 163.854 403.831 163.937 403.679C164.006 403.54 164.061 403.25 164.061 402.807V400.234C164.061 399.735 164.048 399.473 163.937 399.196C163.868 399.016 163.605 398.836 163.19 398.587V398.407L164.836 397.466L164.961 397.549V398.698C166.151 397.868 167.008 397.563 167.576 397.563C168.115 397.563 168.558 397.771 168.849 398.214C169.181 398.712 169.208 399.237 169.208 400.386V402.655C169.208 403.291 169.222 403.54 169.333 403.679C169.444 403.817 169.568 403.9 170.301 403.969ZM174.805 404.066C176.217 404.066 177.033 402.987 177.033 401.313C177.033 399.376 176.037 398.075 174.708 398.075C173.283 398.075 172.425 399.196 172.425 400.842C172.425 402.475 173.186 404.066 174.805 404.066ZM171.388 401.216C171.388 398.836 173.103 397.522 174.888 397.522C176.728 397.522 178.071 399.016 178.071 400.939C178.071 403.111 176.59 404.62 174.667 404.62C172.73 404.62 171.388 403.07 171.388 401.216ZM180.397 402.807V395.986C180.397 395.419 180.356 395.239 180.217 395.059C180.12 394.948 179.954 394.851 179.539 394.588V394.381L181.269 393.371L181.393 393.454C181.338 394.45 181.31 395.958 181.31 396.581V402.779C181.31 403.374 181.352 403.568 181.449 403.706C181.545 403.845 181.67 403.928 182.417 403.969V404.398C182.016 404.384 181.407 404.371 180.854 404.371C180.273 404.371 179.747 404.384 179.332 404.398V403.969C180.051 403.928 180.19 403.831 180.273 403.679C180.342 403.54 180.397 403.25 180.397 402.807ZM186.939 404.066C188.35 404.066 189.166 402.987 189.166 401.313C189.166 399.376 188.17 398.075 186.842 398.075C185.417 398.075 184.559 399.196 184.559 400.842C184.559 402.475 185.32 404.066 186.939 404.066ZM183.521 401.216C183.521 398.836 185.237 397.522 187.022 397.522C188.862 397.522 190.204 399.016 190.204 400.939C190.204 403.111 188.724 404.62 186.8 404.62C184.863 404.62 183.521 403.07 183.521 401.216ZM197.774 398.048V398.656H196.446C196.654 398.933 196.723 399.39 196.723 399.791C196.723 401.147 195.699 402.115 194.246 402.115C193.983 402.115 193.748 402.088 193.61 402.088C193.471 402.088 193.402 402.115 193.319 402.157C193.056 402.309 192.877 402.613 192.877 402.793C192.877 402.959 192.987 403.153 193.139 403.291C193.375 403.499 193.79 403.554 194.454 403.554C195.92 403.554 196.46 403.582 196.944 403.803C197.429 404.025 197.705 404.426 197.705 405.049C197.705 406.695 196.059 407.926 194.066 407.926C192.42 407.926 191.355 407.027 191.355 406.072C191.355 405.63 191.604 405.187 192.904 404.232C192.282 403.997 191.88 403.485 191.88 403.015L192.987 401.88C192.185 401.423 191.797 400.732 191.797 399.86C191.797 398.601 192.918 397.522 194.398 397.522C195.007 397.522 195.492 397.688 195.934 398.048H197.774ZM196.834 405.671C196.834 404.799 196.336 404.371 194.039 404.371C193.499 404.371 193.375 404.398 193.181 404.523C192.614 404.896 192.378 405.394 192.378 405.865C192.378 406.654 193.181 407.276 194.468 407.276C195.81 407.276 196.834 406.543 196.834 405.671ZM192.807 399.708C192.807 400.953 193.458 401.617 194.357 401.617C195.229 401.617 195.741 400.995 195.741 399.998C195.741 398.67 195.146 398.02 194.274 398.02C193.43 398.02 192.807 398.601 192.807 399.708ZM200.593 395.017C200.593 395.446 200.289 395.751 199.874 395.751C199.472 395.751 199.14 395.446 199.14 395.017C199.14 394.561 199.486 394.27 199.874 394.27C200.275 394.27 200.593 394.575 200.593 395.017ZM200.427 397.466L200.552 397.549C200.51 398.366 200.51 399.514 200.51 400.178V402.779C200.51 403.374 200.552 403.568 200.648 403.706C200.745 403.845 200.87 403.914 201.617 403.969V404.398C201.216 404.384 200.635 404.371 200.081 404.371C199.5 404.371 198.96 404.384 198.545 404.398V403.969C199.265 403.928 199.403 403.817 199.486 403.665C199.555 403.527 199.611 403.25 199.611 402.807V400.261C199.611 399.763 199.597 399.473 199.486 399.196C199.417 399.016 199.154 398.836 198.739 398.587V398.407L200.427 397.466ZM208.19 400.275L203.555 400.289C203.527 400.427 203.513 400.621 203.513 400.718C203.513 402.876 204.717 403.72 206.073 403.72C206.654 403.72 207.29 403.499 207.996 402.987L208.287 403.319C207.47 404.177 206.391 404.62 205.602 404.62C203.928 404.62 202.6 403.402 202.6 401.174C202.6 399.058 203.956 397.522 205.658 397.522C207.124 397.522 208.19 398.366 208.19 400.275ZM203.624 399.805C205.215 399.805 206.239 399.777 206.695 399.722C206.958 399.694 207.097 399.652 207.097 399.362C207.097 398.684 206.571 398.048 205.547 398.048C204.509 398.048 203.762 398.878 203.624 399.805Z" fill="white"/>
</g>
</g>
<defs>
<linearGradient id="paint0_linear_2549_100" x1="-nan" y1="-nan" x2="-nan" y2="-nan" gradientUnits="userSpaceOnUse">
<stop stop-color="#11CA83"/>
<stop offset="1" stop-color="#11CA83" stop-opacity="0"/>
</linearGradient>
<radialGradient id="paint1_radial_2549_100" cx="0" cy="0" r="1" gradientUnits="userSpaceOnUse" gradientTransform="translate(164.296 490.296) rotate(70.0395) scale(7.2552 7.25521)">
<stop stop-color="#11CA83"/>
<stop offset="1" stop-color="#11CA83" stop-opacity="0"/>
</radialGradient>
<linearGradient id="paint2_linear_2549_100" x1="-nan" y1="-nan" x2="-nan" y2="-nan" gradientUnits="userSpaceOnUse">
<stop stop-color="#11CA83" stop-opacity="0"/>
<stop offset="1" stop-color="#11CA83"/>
</linearGradient>
<radialGradient id="paint3_radial_2549_100" cx="0" cy="0" r="1" gradientUnits="userSpaceOnUse" gradientTransform="translate(164.296 21.4423) rotate(70.0395) scale(7.25521)">
<stop stop-color="#11CA83"/>
<stop offset="1" stop-color="#11CA83" stop-opacity="0"/>
</radialGradient>
<clipPath id="clip0_2549_100">
<rect width="328" height="512" fill="white"/>
</clipPath>
</defs>
</svg>
