<svg width="16" height="16" viewBox="0 0 16 16" fill="none" xmlns="http://www.w3.org/2000/svg">
<path d="M3.9299 15.3827H0.897824V5.52469H3.9299V15.3827ZM2.41223 4.17997C1.44267 4.17997 0.65625 3.36918 0.65625 2.3903C0.65625 1.9201 0.841254 1.46917 1.17056 1.13669C1.49987 0.804215 1.94651 0.617432 2.41223 0.617432C2.87794 0.617432 3.32458 0.804215 3.65389 1.13669C3.9832 1.46917 4.16821 1.9201 4.16821 2.3903C4.16821 3.36918 3.38146 4.17997 2.41223 4.17997ZM15.278 15.3827H12.2524V10.5839C12.2524 9.44022 12.2296 7.97355 10.676 7.97355C9.09958 7.97355 8.858 9.2161 8.858 10.5015V15.3827H5.82919V5.52469H8.73722V6.86942H8.77965C9.18445 6.09489 10.1733 5.2775 11.6485 5.2775C14.7171 5.2775 15.2812 7.31766 15.2812 9.96757V15.3827H15.278Z" fill="white"/>
</svg>
