<svg width="16" height="12" viewBox="0 0 16 12" fill="none" xmlns="http://www.w3.org/2000/svg">
<path d="M13.6842 3.02105C13.6935 3.15096 13.6935 3.2809 13.6935 3.41082C13.6935 7.37329 10.6776 11.939 5.16531 11.939C3.46709 11.939 1.88952 11.4471 0.5625 10.5934C0.803785 10.6213 1.03576 10.6305 1.28633 10.6305C2.68756 10.6305 3.97748 10.1573 5.00755 9.34993C3.68981 9.32208 2.5855 8.45906 2.20502 7.27123C2.39063 7.29905 2.57622 7.31762 2.77111 7.31762C3.04022 7.31762 3.30935 7.28049 3.55989 7.21556C2.18648 6.93714 1.15639 5.73077 1.15639 4.27384V4.23673C1.5554 4.45945 2.01944 4.59865 2.51123 4.61718C1.70388 4.07894 1.17495 3.16025 1.17495 2.1209C1.17495 1.56412 1.3234 1.05372 1.58325 0.608288C3.05876 2.42714 5.27665 3.61494 7.76363 3.74488C7.71724 3.52216 7.68939 3.29019 7.68939 3.05819C7.68939 1.40635 9.02569 0.060791 10.6868 0.060791C11.5498 0.060791 12.3293 0.422704 12.8768 1.00734C13.5542 0.877424 14.2038 0.626855 14.7792 0.283509C14.5565 0.979513 14.0832 1.56414 13.4615 1.93531C14.0647 1.87039 14.6493 1.70331 15.1875 1.47134C14.7793 2.06522 14.2688 2.59415 13.6842 3.02105Z" fill="white"/>
</svg>
