<svg width="16" height="16" viewBox="0 0 16 16" fill="none" xmlns="http://www.w3.org/2000/svg">
<path d="M7.92351 4.21518C5.84844 4.21518 4.17468 5.90504 4.17468 8.00006C4.17468 10.0951 5.84844 11.7849 7.92351 11.7849C9.99858 11.7849 11.6723 10.0951 11.6723 8.00006C11.6723 5.90504 9.99858 4.21518 7.92351 4.21518ZM7.92351 10.4607C6.58254 10.4607 5.48628 9.35721 5.48628 8.00006C5.48628 6.64291 6.57928 5.5394 7.92351 5.5394C9.26773 5.5394 10.3607 6.64291 10.3607 8.00006C10.3607 9.35721 9.26447 10.4607 7.92351 10.4607ZM12.7001 4.06036C12.7001 4.55118 12.3086 4.94317 11.8257 4.94317C11.3395 4.94317 10.9513 4.54788 10.9513 4.06036C10.9513 3.57284 11.3428 3.17756 11.8257 3.17756C12.3086 3.17756 12.7001 3.57284 12.7001 4.06036ZM15.183 4.95635C15.1275 3.77378 14.86 2.72627 14.0019 1.86323C13.1471 1.00018 12.1095 0.730071 10.9382 0.670778C9.73104 0.601603 6.11271 0.601603 4.90552 0.670778C3.73748 0.726777 2.69994 0.99689 1.84186 1.85993C0.983768 2.72298 0.719491 3.77049 0.660762 4.95305C0.592246 6.17186 0.592246 9.82497 0.660762 11.0438C0.716228 12.2263 0.983768 13.2738 1.84186 14.1369C2.69994 14.9999 3.73421 15.27 4.90552 15.3293C6.11271 15.3985 9.73104 15.3985 10.9382 15.3293C12.1095 15.2733 13.1471 15.0032 14.0019 14.1369C14.8567 13.2738 15.1243 12.2263 15.183 11.0438C15.2515 9.82497 15.2515 6.17515 15.183 4.95635ZM13.6234 12.3515C13.3689 12.9971 12.8763 13.4945 12.2335 13.7548C11.271 14.1402 8.98714 14.0512 7.92351 14.0512C6.85987 14.0512 4.57273 14.1369 3.61349 13.7548C2.97401 13.4978 2.48134 13.0004 2.22359 12.3515C1.84186 11.3798 1.92995 9.07392 1.92995 8.00006C1.92995 6.9262 1.84512 4.61706 2.22359 3.64861C2.47808 3.00297 2.97075 2.50557 3.61349 2.24534C4.57599 1.85993 6.85987 1.94887 7.92351 1.94887C8.98714 1.94887 11.2743 1.86323 12.2335 2.24534C12.873 2.50227 13.3657 2.99968 13.6234 3.64861C14.0052 4.62035 13.9171 6.9262 13.9171 8.00006C13.9171 9.07392 14.0052 11.3831 13.6234 12.3515Z" fill="white"/>
</svg>
