<svg width="17" height="14" viewBox="0 0 17 14" fill="none" xmlns="http://www.w3.org/2000/svg">
<path d="M16.7116 3.39997C16.6402 4.93278 15.5545 7.03161 13.4473 9.69645C11.2723 12.4808 9.43303 13.873 7.92589 13.873C6.99375 13.873 6.20446 13.0258 5.55804 11.3312C4.30089 6.78903 3.76518 4.1277 2.72589 4.1277C2.60446 4.1277 2.18661 4.37731 1.46875 4.8695L0.71875 3.91325C2.56161 2.32067 4.32232 0.548798 5.42589 0.45036C6.67232 0.330829 7.43661 1.17106 7.72589 2.96403C8.75089 9.34489 9.20446 10.3082 11.0687 7.41833C11.7366 6.3777 12.0973 5.58669 12.1473 5.04177C12.3187 3.42809 10.8687 3.53708 9.88661 3.95192C10.6723 1.41716 12.1759 0.186688 14.3937 0.257001C16.0295 0.299188 16.8045 1.35036 16.7116 3.39997Z" fill="white"/>
</svg>
