<svg width="157" height="24" viewBox="0 0 157 24" fill="none" xmlns="http://www.w3.org/2000/svg">
<g clip-path="url(#clip0_401_266)">
<path d="M16.314 1.52769V4.39725C16.314 5.01837 16.1117 5.40347 15.3383 5.40347H5.24761V9.49042H13.946C14.7076 9.49042 14.9099 9.87552 14.9099 10.4966V13.2544C14.9099 13.8879 14.7076 14.2606 13.946 14.2606H5.24761V22.4221C5.24761 23.3289 5.04532 23.4656 4.28376 23.4656H0.975746C0.202289 23.4656 0 23.0805 0 22.4469V1.52769C0 0.906575 0.202289 0.521484 0.975746 0.521484H15.3383C16.1117 0.521484 16.314 0.906575 16.314 1.52769Z" fill="white"/>
<path d="M44.3125 23.4778H40.3738C40.026 23.4918 39.6819 23.3993 39.3838 23.2117C39.0857 23.0241 38.8466 22.7496 38.696 22.4219L35.1262 16.807C34.8024 16.276 34.6716 15.6414 34.7574 15.0182V12.248C34.7574 11.6145 34.9596 11.2294 35.7331 11.2294H36.3995C37.176 11.2816 37.9416 11.0166 38.5344 10.4904C39.1273 9.96422 39.501 9.21804 39.5766 8.40952C39.578 7.99782 39.4973 7.59031 39.3398 7.21289C39.1822 6.83548 38.9511 6.4964 38.6613 6.2172C38.3715 5.93799 38.0292 5.72477 37.6562 5.59107C37.2832 5.45738 36.8877 5.40613 36.4947 5.44058H32.0205V22.4219C32.0205 23.2294 31.6516 23.4406 31.0448 23.4406H27.7367C27.1418 23.4406 26.8086 23.2294 26.8086 22.4219V1.5648C26.8086 0.943684 26.9752 0.558594 27.7367 0.558594H36.1615C39.8027 0.558594 41.4091 1.32877 42.8132 2.79461C43.4661 3.52691 43.9737 4.38694 44.3066 5.32506C44.6395 6.26318 44.7911 7.26083 44.7528 8.26045C44.7445 9.77423 44.2949 11.2495 43.4638 12.49C42.6327 13.7304 41.4594 14.6773 40.1002 15.2046L44.8599 22.3598C45.1217 22.8443 44.9551 23.4778 44.3125 23.4778Z" fill="white"/>
<path d="M74.0847 23.4782H70.5863C69.8486 23.4782 69.5749 23.267 69.3131 22.4347L68.373 19.677H60.1863L59.2462 22.4223C58.9845 23.2546 58.7227 23.4658 57.9849 23.4658H54.4151C53.6774 23.4658 53.6774 22.9068 53.8439 22.4844L61.2691 1.59001C61.3366 1.26927 61.5115 0.984185 61.7623 0.786064C62.0132 0.587943 62.3236 0.48979 62.6376 0.509264H65.8385C66.5762 0.509264 66.9094 0.857094 67.2069 1.59001L74.5964 22.4844C74.8225 22.9192 74.8225 23.4782 74.0847 23.4782ZM66.8023 14.7826L64.2678 7.08069L61.757 14.795L66.8023 14.7826Z" fill="white"/>
<path d="M100.621 16.6707C100.621 21.6396 96.8845 23.9999 91.7321 23.9999C87.5554 23.9999 82.748 21.5154 82.748 16.5465C82.748 15.739 82.9503 15.5651 83.7119 15.5651H86.9604C87.722 15.5651 88.1503 15.6645 88.1503 16.5465C88.1941 17.085 88.4172 17.5905 88.781 17.975C89.2237 18.388 89.7418 18.7032 90.3041 18.9017C90.8665 19.1002 91.4615 19.178 92.0533 19.1303C93.862 19.1303 95.3256 18.708 95.3256 16.7577C95.3256 14.8073 92.3508 14.7577 89.5188 13.826C86.1394 12.708 83.0336 11.3415 83.0336 6.88188C83.0336 2.42225 86.9723 0.111695 91.149 -0.0622179C95.3256 -0.236131 100.038 1.96263 100.038 6.5589C100.038 7.40362 99.8474 7.54026 99.0739 7.54026H95.8016C95.1591 7.54026 95.0639 7.0558 94.8973 6.59617C94.7426 6.19694 94.5025 5.83999 94.1952 5.55268C93.3805 4.90382 92.3754 4.57015 91.3513 4.60859C90.2565 4.60859 88.4121 5.06822 88.4121 6.63343C88.4121 8.75766 93.3266 9.52784 94.6593 10.0868C97.0868 10.9191 100.621 11.9254 100.621 16.6707Z" fill="white"/>
<path d="M128.118 19.6027V22.4226C128.118 23.0561 127.928 23.4412 127.154 23.4412H112.185C111.411 23.4412 111.209 23.0561 111.209 22.4226V1.52818C111.209 0.907063 111.411 0.521973 112.185 0.521973H126.583C127.356 0.521973 127.559 0.907063 127.559 1.52818V4.43501C127.559 5.05613 127.356 5.44123 126.583 5.44123H116.492V9.24247H125.453C126.214 9.24247 126.416 9.62756 126.416 10.2611V12.9816C126.416 13.6027 126.214 13.9878 125.453 13.9878H116.492V18.5965H127.202C127.928 18.5965 128.118 18.9816 128.118 19.6027Z" fill="white"/>
<path d="M156.355 23.4778H152.416C152.071 23.492 151.73 23.4009 151.434 23.2155C151.138 23.0302 150.9 22.7587 150.75 22.4344L147.18 16.8195C146.857 16.2884 146.726 15.6538 146.812 15.0306V12.248C146.812 11.6145 147.014 11.2294 147.787 11.2294H148.454C149.231 11.2848 149.998 11.0209 150.592 10.4941C151.185 9.96734 151.558 9.21928 151.631 8.40952C151.632 7.99782 151.551 7.59031 151.394 7.21289C151.236 6.83548 151.005 6.4964 150.715 6.2172C150.426 5.93799 150.083 5.72477 149.71 5.59107C149.337 5.45738 148.942 5.40613 148.549 5.44058H144.11V22.4219C144.11 23.2294 143.741 23.4406 143.135 23.4406H139.827C139.232 23.4406 138.898 23.2294 138.898 22.4219V1.5648C138.898 0.943684 139.065 0.558594 139.827 0.558594H148.251C151.893 0.558594 153.499 1.32877 154.903 2.79461C155.713 3.71817 156.296 4.83269 156.603 6.04287C156.91 7.25304 156.932 8.52286 156.666 9.74371C156.401 10.9646 155.856 12.1001 155.079 13.0533C154.301 14.0064 153.314 14.7488 152.202 15.217L156.962 22.3723C157.164 22.8443 156.997 23.4778 156.355 23.4778Z" fill="white"/>
</g>
<defs>
<clipPath id="clip0_401_266">
<rect width="157" height="24" fill="white"/>
</clipPath>
</defs>
</svg>
